<svg width="45" height="45" viewBox="0 0 45 45" fill="none" xmlns="http://www.w3.org/2000/svg">
<path d="M0 22.5C0 10.0736 10.0736 0 22.5 0C34.9264 0 45 10.0736 45 22.5C45 34.9264 34.9264 45 22.5 45C10.0736 45 0 34.9264 0 22.5Z" fill="#FFE812"/>
<path d="M22.5 10.3125C14.2157 10.3125 7.5 15.6077 7.5 22.1394C7.5 26.3623 10.3076 30.0678 14.531 32.1602C14.3012 32.9526 13.0545 37.2578 13.0048 37.5961C13.0048 37.5961 12.975 37.8502 13.1395 37.9471C13.3042 38.044 13.4977 37.9688 13.4977 37.9688C13.9696 37.9028 18.9702 34.3902 19.8358 33.7803C20.7005 33.9027 21.5908 33.9664 22.5 33.9664C30.7843 33.9664 37.5 28.6714 37.5 22.1394C37.5 15.6077 30.7843 10.3125 22.5 10.3125Z" fill="#381F1F"/>
<path fill-rule="evenodd" clip-rule="evenodd" d="M14.2067 26.268C13.7294 26.268 13.3413 25.8973 13.3413 25.4415V20.3004H11.991C11.5228 20.3004 11.1418 19.9202 11.1418 19.453C11.1418 18.9859 11.5228 18.6057 11.991 18.6057H16.4224C16.8907 18.6057 17.2716 18.9859 17.2716 19.453C17.2716 19.9202 16.8906 20.3004 16.4224 20.3004H15.0721V25.4415C15.0721 25.8973 14.684 26.268 14.2067 26.268ZM21.7949 26.2567C21.4341 26.2567 21.1581 26.1102 21.0748 25.8745L20.6463 24.7527L18.0074 24.7525L17.5787 25.8751C17.4958 26.1103 17.2198 26.2567 16.859 26.2567C16.6692 26.2569 16.4815 26.2162 16.3089 26.1373C16.0703 26.0272 15.841 25.7246 16.1038 24.9084L18.1738 19.46C18.3196 19.0456 18.7625 18.6187 19.3262 18.6058C19.8914 18.6186 20.3343 19.0456 20.4805 19.4608L22.5496 24.9068C22.813 25.7249 22.5837 26.0277 22.3451 26.1374C22.1724 26.2162 21.9848 26.2568 21.7949 26.2567ZM19.3269 20.7643L20.1913 23.2198H18.4625L19.3269 20.7643ZM23.9423 26.1418C23.4849 26.1418 23.113 25.7858 23.113 25.3485V19.4711C23.113 18.9938 23.5093 18.6057 23.9964 18.6057C24.4834 18.6057 24.8798 18.9938 24.8798 19.4711V24.5552H26.7187C27.1761 24.5552 27.5481 24.9111 27.5481 25.3485C27.5481 25.7858 27.1761 26.1418 26.7187 26.1418H23.9423ZM27.8847 25.3913C27.8847 25.8686 28.2728 26.2567 28.7501 26.2567C28.9796 26.2564 29.1996 26.1651 29.3619 26.0028C29.5242 25.8405 29.6155 25.6205 29.6158 25.3909V23.5027L29.916 23.2025L31.9455 25.8915C32.0259 25.9988 32.1302 26.0858 32.2503 26.1456C32.3703 26.2054 32.5027 26.2361 32.6368 26.2356C32.8248 26.2359 33.0077 26.1746 33.1573 26.0608C33.2483 25.9927 33.3248 25.9072 33.3824 25.8092C33.44 25.7112 33.4777 25.6027 33.4931 25.4902C33.5093 25.3776 33.5029 25.263 33.4743 25.1529C33.4458 25.0429 33.3958 24.9396 33.3269 24.849L31.1968 22.027L33.1689 20.0552C33.3044 19.9195 33.3724 19.7324 33.3598 19.5283C33.3474 19.326 33.257 19.1312 33.1054 18.9797C32.9428 18.8173 32.7259 18.7241 32.5099 18.7241C32.3247 18.7241 32.154 18.7925 32.0299 18.9167L29.6155 21.3311V19.4711C29.6155 18.9938 29.2273 18.6057 28.7501 18.6057C28.2728 18.6057 27.8847 18.9938 27.8847 19.4711V25.3913Z" fill="#FFE812"/>
</svg>
