<svg width="45" height="45" viewBox="0 0 45 45" fill="none" xmlns="http://www.w3.org/2000/svg">
<path d="M0 22.5C0 10.0736 10.0736 0 22.5 0C34.9264 0 45 10.0736 45 22.5C45 34.9264 34.9264 45 22.5 45C10.0736 45 0 34.9264 0 22.5Z" fill="#FFE812"/>
<path d="M22.5 10.3125C14.2157 10.3125 7.5 15.6077 7.5 22.1394C7.5 26.3623 10.3076 30.0678 14.531 32.1602C14.3012 32.9526 13.0545 37.2578 13.0048 37.5961C13.0048 37.5961 12.975 37.8502 13.1395 37.9471C13.3042 38.044 13.4977 37.9688 13.4977 37.9688C13.9696 37.9028 18.9702 34.3902 19.8358 33.7803C20.7005 33.9027 21.5908 33.9664 22.5 33.9664C30.7843 33.9664 37.5 28.6714 37.5 22.1394C37.5 15.6077 30.7843 10.3125 22.5 10.3125Z" fill="#381F1F"/>
<path fill-rule="evenodd" clip-rule="evenodd" d="M14.2067 26.2681C13.7294 26.2681 13.3413 25.8974 13.3413 25.4416V20.3005H11.991C11.5228 20.3005 11.1418 19.9203 11.1418 19.4531C11.1418 18.986 11.5228 18.6058 11.991 18.6058H16.4224C16.8907 18.6058 17.2716 18.986 17.2716 19.4531C17.2716 19.9203 16.8906 20.3005 16.4224 20.3005H15.0721V25.4416C15.0721 25.8974 14.684 26.2681 14.2067 26.2681ZM21.7949 26.2569C21.4341 26.2569 21.1581 26.1103 21.0748 25.8746L20.6463 24.7528L18.0074 24.7526L17.5787 25.8752C17.4958 26.1104 17.2198 26.2569 16.859 26.2569C16.6692 26.257 16.4815 26.2163 16.3089 26.1374C16.0703 26.0274 15.841 25.7247 16.1038 24.9085L18.1738 19.4601C18.3196 19.0457 18.7625 18.6188 19.3262 18.6059C19.8914 18.6187 20.3343 19.0457 20.4805 19.4609L22.5496 24.9069C22.813 25.725 22.5837 26.0278 22.3451 26.1375C22.1724 26.2163 21.9848 26.2569 21.7949 26.2569ZM19.3269 20.7644L20.1913 23.2199H18.4625L19.3269 20.7644ZM23.9423 26.1419C23.4849 26.1419 23.113 25.7859 23.113 25.3486V19.4712C23.113 18.9939 23.5093 18.6058 23.9964 18.6058C24.4834 18.6058 24.8798 18.9939 24.8798 19.4712V24.5553H26.7187C27.1761 24.5553 27.5481 24.9113 27.5481 25.3486C27.5481 25.7859 27.1761 26.1419 26.7187 26.1419H23.9423ZM27.8847 25.3914C27.8847 25.8687 28.2728 26.2569 28.7501 26.2569C28.9796 26.2565 29.1996 26.1652 29.3619 26.0029C29.5242 25.8406 29.6155 25.6206 29.6158 25.391V23.5029L29.916 23.2026L31.9455 25.8916C32.0259 25.9989 32.1302 26.0859 32.2503 26.1458C32.3703 26.2055 32.5027 26.2362 32.6368 26.2357C32.8248 26.236 33.0077 26.1747 33.1573 26.0609C33.2483 25.9928 33.3248 25.9073 33.3824 25.8093C33.44 25.7113 33.4777 25.6029 33.4931 25.4903C33.5093 25.3777 33.5029 25.2631 33.4743 25.153C33.4458 25.043 33.3958 24.9397 33.3269 24.8491L31.1968 22.0271L33.1689 20.0553C33.3044 19.9196 33.3724 19.7325 33.3598 19.5284C33.3474 19.3261 33.257 19.1313 33.1054 18.9798C32.9428 18.8174 32.7259 18.7242 32.5099 18.7242C32.3247 18.7242 32.154 18.7926 32.0299 18.9168L29.6155 21.3312V19.4712C29.6155 18.9939 29.2273 18.6058 28.7501 18.6058C28.2728 18.6058 27.8847 18.9939 27.8847 19.4712V25.3914Z" fill="#FFE812"/>
</svg>
