<svg width="74" height="74" viewBox="0 0 74 74" fill="none" xmlns="http://www.w3.org/2000/svg">
<ellipse cx="37.3745" cy="42.123" rx="36.6255" ry="31.8769" fill="#FFD534"/>
<ellipse cx="36.3259" cy="34.3673" rx="36.3259" ry="34.3673" fill="#FCF6AB"/>
<path d="M38.9852 30.1988C38.2894 31.806 36.0102 31.806 35.3144 30.1988L31.6137 21.6503C31.042 20.3298 32.0101 18.8558 33.4491 18.8558L40.8505 18.8558C42.2895 18.8558 43.2576 20.3298 42.6859 21.6503L38.9852 30.1988Z" fill="#E5BF69"/>
<ellipse cx="37.1498" cy="19.9943" rx="5.9919" ry="4.48269" fill="#E5BF69"/>
<path d="M32.2669 33.5877C34.0399 33.1479 35.5042 34.9947 34.5698 36.4923L29.6367 44.3988C28.8985 45.5819 27.1291 45.6596 26.2475 44.5477L21.8196 38.9629C20.938 37.851 21.5051 36.2568 22.9058 35.9094L32.2669 33.5877Z" fill="#E5BF69"/>
<ellipse cx="5.80254" cy="4.63461" rx="5.80254" ry="4.63461" transform="matrix(-0.621276 -0.783592 0.813246 -0.58192 24.8267 48.3142)" fill="#E5BF69"/>
<path d="M39.2121 36.4523C38.1985 35.0017 39.5687 33.0769 41.3633 33.4304L50.8314 35.2954C52.245 35.5739 52.8901 37.1372 52.0681 38.2919L47.9474 44.0804C47.1253 45.2352 45.3579 45.2484 44.5595 44.1058L39.2121 36.4523Z" fill="#E5BF69"/>
<ellipse cx="5.788" cy="4.64587" rx="5.788" ry="4.64587" transform="matrix(-0.579937 0.814661 -0.841328 -0.540525 56.2804 38.3444)" fill="#E5BF69"/>
</svg>
