<svg width="81" height="80" viewBox="0 0 81 80" fill="none" xmlns="http://www.w3.org/2000/svg">
<rect y="36.1025" width="50.1502" height="62.9112" rx="8" transform="rotate(-46.0454 0 36.1025)" fill="#300909"/>
<rect x="14" y="36.5995" width="5" height="5" rx="1" transform="rotate(-46.0454 14 36.5995)" fill="#773333"/>
<rect x="26" y="47.5995" width="5" height="5" rx="1" transform="rotate(-46.0454 26 47.5995)" fill="#773333"/>
<rect x="38" y="59.5995" width="5" height="5" rx="1" transform="rotate(-46.0454 38 59.5995)" fill="#773333"/>
<rect x="44" y="65.5996" width="5" height="5" rx="1" transform="rotate(-46.0454 44 65.5996)" fill="#773333"/>
<rect x="32" y="52.5995" width="5" height="5" rx="1" transform="rotate(-46.0454 32 52.5995)" fill="#773333"/>
<rect x="20" y="41.5995" width="5" height="5" rx="1" transform="rotate(-46.0454 20 41.5995)" fill="#773333"/>
<rect x="21" y="29.5995" width="5" height="5" rx="1" transform="rotate(-46.0454 21 29.5995)" fill="#773333"/>
<rect x="33" y="40.5995" width="5" height="5" rx="1" transform="rotate(-46.0454 33 40.5995)" fill="#773333"/>
<rect x="45" y="53.5995" width="5" height="5" rx="1" transform="rotate(-46.0454 45 53.5995)" fill="#773333"/>
<path d="M51.1141 59.9226C50.7165 59.5392 50.7049 58.9062 51.0883 58.5086L53.1705 56.3489C53.5539 55.9513 54.1869 55.9398 54.5845 56.3231L56.7442 58.4054C57.1418 58.7887 57.1533 59.4218 56.77 59.8194L54.6877 61.979C54.3044 62.3766 53.6713 62.3882 53.2737 62.0048L51.1141 59.9226Z" fill="#773333"/>
<rect x="39" y="46.5995" width="5" height="5" rx="1" transform="rotate(-46.0454 39 46.5995)" fill="#773333"/>
<rect x="27" y="35.5995" width="5" height="5" rx="1" transform="rotate(-46.0454 27 35.5995)" fill="#773333"/>
<rect x="27" y="22.5995" width="5" height="5" rx="1" transform="rotate(-46.0454 27 22.5995)" fill="#773333"/>
<rect x="40" y="34.5995" width="5" height="5" rx="1" transform="rotate(-46.0454 40 34.5995)" fill="#773333"/>
<rect x="52" y="46.5995" width="5" height="5" rx="1" transform="rotate(-46.0454 52 46.5995)" fill="#773333"/>
<rect x="57" y="52.5995" width="5" height="5" rx="1" transform="rotate(-46.0454 57 52.5995)" fill="#773333"/>
<rect x="46" y="40.5995" width="5" height="5" rx="1" transform="rotate(-46.0454 46 40.5995)" fill="#773333"/>
<rect x="33" y="28.5995" width="5" height="5" rx="1" transform="rotate(-46.0454 33 28.5995)" fill="#773333"/>
<rect x="33" y="15.5995" width="5" height="5" rx="1" transform="rotate(-46.0454 33 15.5995)" fill="#773333"/>
<rect x="46" y="27.5995" width="5" height="5" rx="1" transform="rotate(-46.0454 46 27.5995)" fill="#773333"/>
<rect x="64" y="45.5995" width="5" height="5" rx="1" transform="rotate(-46.0454 64 45.5995)" fill="#773333"/>
<rect x="58" y="40.5995" width="5" height="5" rx="1" transform="rotate(-46.0454 58 40.5995)" fill="#773333"/>
<rect x="52" y="33.5995" width="5" height="5" rx="1" transform="rotate(-46.0454 52 33.5995)" fill="#773333"/>
<rect x="40" y="21.5995" width="5" height="5" rx="1" transform="rotate(-46.0454 40 21.5995)" fill="#773333"/>
</svg>
