<svg width="68" height="59" viewBox="0 0 68 59" fill="none" xmlns="http://www.w3.org/2000/svg">
<path d="M7.73712 15.8823C11.6031 9.1862 20.1654 6.89194 26.8615 10.7579L53.5363 26.1586C60.2324 30.0246 62.5266 38.5869 58.6606 45.283L57.9235 46.5597C54.0575 53.2558 45.4952 55.5501 38.7991 51.6841L12.1243 36.2834C5.42825 32.4174 3.134 23.8551 6.99999 17.159L7.73712 15.8823Z" fill="#FFF064"/>
<path d="M9.83465 12.1244C13.7006 5.42826 22.2629 3.13401 28.959 7L55.7612 22.4743C62.4573 26.3402 64.7516 34.9025 60.8856 41.5986L60.1484 42.8754C56.2824 49.5714 47.7202 51.8657 41.0241 47.9997L14.2219 32.5255C7.52579 28.6595 5.23154 20.0972 9.09753 13.4011L9.83465 12.1244Z" fill="#FFF6A2"/>
<circle cx="23.3363" cy="3.0341" r="1.30033" fill="#FFF064"/>
<circle cx="29.4046" cy="7.36845" r="1.30033" fill="#FFF064"/>
<circle cx="12.9336" cy="3.90104" r="1.30033" fill="#FFF064"/>
<circle cx="11.1999" cy="22.1056" r="1.30033" fill="#FFF064"/>
<circle cx="26.804" cy="16.0375" r="1.30033" fill="#FFF064"/>
<circle cx="35.4728" cy="9.96916" r="1.30033" fill="#FFF064"/>
<circle cx="21.6026" cy="24.7063" r="1.30033" fill="#FFF064"/>
<circle cx="8.59922" cy="13.4368" r="1.30033" fill="#FFF064"/>
<circle cx="8.59922" cy="13.4368" r="1.30033" fill="#FFF064"/>
<circle cx="16.4013" cy="10.8361" r="1.30033" fill="#FFF064"/>
</svg>
