<svg width="48" height="48" viewBox="0 0 48 48" fill="none" xmlns="http://www.w3.org/2000/svg">
<path d="M28.275 46.5C-7.34998 46.5 -7.34998 1.5 28.275 1.5V46.5Z" fill="#9E7658"/>
<path d="M28.275 46.5C38.3404 46.5 46.5 36.4264 46.5 24C46.5 11.5736 38.3404 1.5 28.275 1.5C18.2096 1.5 10.05 11.5736 10.05 24C10.05 36.4264 18.2096 46.5 28.275 46.5Z" fill="#89664C"/>
<path d="M28.275 45.225C37.7605 45.225 45.45 35.7223 45.45 24C45.45 12.2778 37.7605 2.77502 28.275 2.77502C18.7895 2.77502 11.1 12.2778 11.1 24C11.1 35.7223 18.7895 45.225 28.275 45.225Z" fill="#B2D921"/>
<path d="M28.275 42.525C36.5593 42.525 43.275 34.2311 43.275 24C43.275 13.7689 36.5593 5.47498 28.275 5.47498C19.9908 5.47498 13.275 13.7689 13.275 24C13.275 34.2311 19.9908 42.525 28.275 42.525Z" fill="#C7E755"/>
<path d="M40.05 27.975C39.825 29.025 35.4 27.975 35.025 28.875C34.575 29.85 37.5 33.975 36.9 34.725C36.3 35.475 32.925 31.875 32.175 32.4C31.425 32.925 32.25 38.325 31.425 38.625C30.6 38.925 29.175 33.675 28.275 33.675C27.45 33.675 25.95 38.85 25.125 38.55C24.225 38.25 25.125 32.85 24.375 32.325C23.625 31.8 20.25 35.4 19.65 34.65C19.05 33.9 21.975 29.775 21.525 28.8C21.075 27.9 16.725 28.875 16.5 27.9C16.275 26.85 20.475 25.125 20.475 24C20.475 22.95 16.275 21.15 16.5 20.1C16.725 19.05 21.15 20.1 21.525 19.2C21.975 18.225 19.05 14.1 19.65 13.35C20.25 12.6 23.625 16.2 24.375 15.675C25.125 15.15 24.3 9.75001 25.125 9.45001C25.95 9.15001 27.375 14.4 28.275 14.4C29.1 14.4 30.6 9.22501 31.425 9.45001C32.325 9.75001 31.425 15.15 32.175 15.675C32.925 16.2 36.3 12.6 36.9 13.35C37.5 14.1 34.575 18.225 35.025 19.2C35.475 20.1 39.825 19.125 40.05 20.1C40.275 21.15 36.075 22.875 36.075 24C36.075 25.125 40.275 26.925 40.05 27.975Z" fill="#B2D921"/>
<path d="M38.25 24L32.175 25.275L36.9 30.15L31.125 27.525L33.225 34.65L29.325 28.875L28.275 36.3L27.15 28.875L23.25 34.65L25.35 27.525L19.575 30.15L24.3 25.275L18.225 24L24.3 22.725L19.575 17.85L25.35 20.475L23.25 13.35L27.15 19.125L28.275 11.7L29.325 19.125L33.225 13.35L31.125 20.475L36.9 17.85L32.175 22.725L38.25 24Z" fill="#ECFFAD"/>
<path d="M26.175 13.05L25.875 14.85L26.85 16.275L27.15 14.475L26.175 13.05ZM24.3 10.5L23.925 12.3L24.9 13.725L25.275 11.925L24.3 10.5ZM31.05 12.675L29.775 13.65L29.625 15.525L30.9 14.475L31.05 12.675ZM30.3 34.95L30.675 33.15L29.625 31.725L29.325 33.525L30.3 34.95ZM32.25 37.5L32.55 35.7L31.575 34.275L31.2 36.075L32.25 37.5ZM25.425 35.325L26.7 34.35L26.85 32.475L25.575 33.525L25.425 35.325ZM37.125 21.45L35.7 21.075L34.5 22.275L36 22.65L37.125 21.45ZM39.225 19.125L37.725 18.675L36.6 19.875L38.025 20.325L39.225 19.125ZM37.425 27.45L36.675 25.875L35.175 25.725L35.925 27.3L37.425 27.45ZM19.35 26.55L20.85 26.925L21.975 25.725L20.475 25.35L19.35 26.55ZM17.325 28.875L18.75 29.325L19.875 28.125L18.45 27.675L17.325 28.875ZM19.05 20.55L19.8 22.125L21.3 22.275L20.55 20.7L19.05 20.55ZM35.4 16.95L33.9 17.4L33.3 19.05L34.725 18.675L35.4 16.95ZM36.375 13.725L34.95 14.175L34.35 15.9L35.775 15.45L36.375 13.725ZM20.1 34.275L21.525 33.825L22.2 32.1L20.7 32.55L20.1 34.275ZM22.5 15.225L22.875 17.025L24.225 17.775L23.925 15.975L22.5 15.225ZM19.95 13.95L20.25 15.75L21.675 16.5L21.3 14.7L19.95 13.95ZM36.525 34.05L36.225 32.25L34.875 31.5L35.175 33.3L36.525 34.05Z" fill="#3E4347"/>
</svg>
