<svg width="94" height="94" viewBox="0 0 94 94" fill="none" xmlns="http://www.w3.org/2000/svg">
<g clip-path="url(#clip0_529_281)">
<path d="M64.2307 77.6481C12.1942 95.2156 -9.99628 29.4852 42.0402 11.9178L64.2307 77.6481Z" fill="#563626"/>
<path d="M64.2307 77.6481C78.9329 72.6847 85.8839 53.9468 79.7562 35.7958C73.6285 17.6449 56.7425 6.95433 42.0402 11.9178C27.338 16.8812 20.387 35.6191 26.5147 53.7701C32.6424 71.921 49.5284 82.6116 64.2307 77.6481Z" fill="#89664C"/>
<path d="M63.3225 75.8801C77.0235 71.2547 83.4442 53.6246 77.6637 36.5023C71.8833 19.3799 56.0905 9.24908 42.3896 13.8745C28.6887 18.4999 22.2679 36.1299 28.0484 53.2523C33.8288 70.3747 49.6216 80.5055 63.3225 75.8801Z" fill="#FFE9AD"/>
<path d="M72.8864 43.4311L72.8864 55.83L64.3815 53.3059L73.9472 56.1448L64.3815 66.3163L54.5089 61.4653L56.228 66.3841L53.869 59.6343L46.7281 66.3163L47.7304 60.49L38.228 61.6233L38.2281 53.3059L37.2281 43.4311L35.7281 33.7926L40.9901 25.9001L51.8812 19.9649L57.4459 23.4648L62.641 33.7925L60.2948 30.3529L67.8818 30.3529L67.8818 35.1137L68.7281 38.3841L72.8864 43.4311Z" fill="#FFF0A5"/>
</g>
<defs>
<clipPath id="clip0_529_281">
<rect width="74" height="74" fill="white" transform="translate(0 23.6698) rotate(-18.6546)"/>
</clipPath>
</defs>
</svg>
