<svg width="72" height="72" viewBox="0 0 72 72" fill="none" xmlns="http://www.w3.org/2000/svg">
<path d="M45.426 13.117C46.1622 13.3106 46.867 13.6083 47.519 14.001C51.847 16.432 55.525 20.36 56.415 25.385C56.9028 28.8543 56.3676 32.3905 54.875 35.56C52.9819 39.9027 49.9806 43.6716 46.172 46.489C43.134 48.729 39.568 50.381 37.201 53.319C34.964 56.098 33.761 60.022 30.497 61.459C28.8727 62.0898 27.0879 62.1785 25.409 61.712C9.70201 57.984 11.861 34.58 19.147 24.605L19.17 24.572C22.4537 20.2245 26.9573 16.9529 32.107 15.174C35.821 13.832 41.441 12.209 45.426 13.117Z" fill="#FCEA2B" stroke="#FCEA2B" stroke-width="2" stroke-miterlimit="10"/>
<path d="M56.363 25.385C55.473 20.36 51.796 16.432 47.468 14.001C46.8711 13.6486 46.2334 13.3705 45.569 13.173C48.4224 15.4474 50.3832 18.6545 51.107 22.231C51.5948 25.7002 51.0596 29.2364 49.567 32.406C47.6736 36.7488 44.672 40.5177 40.863 43.335C37.826 45.575 34.26 47.227 31.893 50.165C29.655 52.944 28.453 56.868 25.189 58.305C23.5646 58.9357 21.7799 59.0245 20.101 58.558C19.6377 58.4473 19.19 58.3193 18.758 58.174C20.5959 59.9307 22.8775 61.1538 25.358 61.712C27.0366 62.1783 28.8209 62.0895 30.445 61.459C33.71 60.022 34.912 56.098 37.149 53.32C39.516 50.381 43.083 48.728 46.119 46.489C49.9283 43.6718 52.9303 39.9029 54.824 35.56C56.3166 32.3904 56.8508 28.8542 56.363 25.385Z" fill="#F1B31C" stroke="#F1B31C" stroke-width="2" stroke-linecap="round" stroke-linejoin="round"/>
<path d="M40 11.453C40 11.453 36.101 17.586 30.532 19.357C24.963 21.128 18 18.676 18 18.676C18 18.676 21.899 12.543 27.468 10.771C33.037 8.99904 40 11.453 40 11.453Z" fill="#B1CC33"/>
</svg>
