<svg width="54" height="45" viewBox="0 0 54 45" fill="none" xmlns="http://www.w3.org/2000/svg">
<path d="M53.9196 27.6461C55.1575 44.5639 41.9115 44.9765 27.0987 44.9765C12.286 44.9765 -2.19784 42.9134 0.277893 27.6461C0.277893 18.0748 12.286 0 27.0987 0C41.9115 0 53.9196 18.0748 53.9196 27.6461Z" fill="#ECECEC"/>
<path d="M47.4523 26.8208C47.8649 39.1996 38.5411 39.6123 27.5446 39.6123C16.548 39.6123 5.7957 38.0602 7.63361 26.5747C7.63361 19.3743 16.548 5.77673 27.5446 5.77673C38.5411 5.77673 47.4523 19.6204 47.4523 26.8208Z" fill="white"/>
<path d="M40.9955 26.3C41.2628 34.8857 35.1738 34.8857 27.9924 34.8857C20.811 34.8857 13.7891 33.8636 14.9893 26.3C14.9893 21.5582 20.811 12.6037 27.9924 12.6037C35.1738 12.6037 40.9955 21.5582 40.9955 26.3Z" fill="#773333"/>
<path d="M38.444 35.8987C38.444 39.317 36.9661 42.5007 35.143 42.5007C35.0014 42.5007 34.8395 42.4808 34.663 42.4427C29.5916 41.3483 29.9549 29.7092 35.143 29.7092V29.7092C36.9661 29.7092 38.444 32.4803 38.444 35.8987Z" fill="#773333"/>
</svg>
