<svg width="50" height="50" viewBox="0 0 50 50" fill="none" xmlns="http://www.w3.org/2000/svg">
<ellipse cx="26.25" cy="25.2525" rx="23.75" ry="24.7475" fill="#300909"/>
<ellipse cx="23.1521" cy="23.4632" rx="23.1521" ry="23.4632" transform="matrix(0.99979 0.0205149 -0.0201068 0.999798 1.67798 0.0369873)" fill="#E0E0E0"/>
<ellipse cx="22.5" cy="22.7273" rx="22.5" ry="22.7273" fill="#300909"/>
<path d="M31.1228 26.8465C30.8846 27.2989 30.4322 27.6537 29.7427 27.8768C29.05 28.1009 28.1495 28.18 27.0888 28.0952C24.9691 27.9258 22.3076 27.1099 19.6226 25.6679C16.9376 24.2258 14.7797 22.4533 13.4554 20.7729C12.7927 19.9321 12.354 19.1338 12.1506 18.4284C11.9481 17.7263 11.9863 17.149 12.2245 16.6966C12.4626 16.2442 12.9151 15.8894 13.6046 15.6663C14.2972 15.4422 15.1978 15.3631 16.2584 15.4479C18.3781 15.6173 21.0396 16.4332 23.7246 17.8752C26.4096 19.3172 28.5676 21.0898 29.8919 22.7701C30.5546 23.611 30.9932 24.4093 31.1966 25.1147C31.3991 25.8168 31.3609 26.3941 31.1228 26.8465Z" fill="#300909" stroke="#250404"/>
</svg>
