<svg width="77" height="80" viewBox="0 0 77 80" fill="none" xmlns="http://www.w3.org/2000/svg">
<path d="M39.3924 37.4936C38.9209 37.4761 38.4599 37.3494 38.0457 37.1234C24.9431 29.99 16.0599 13.4138 13.288 4.01346C13.0592 3.23863 13.1475 2.40464 13.5336 1.69496C13.9197 0.985269 14.5719 0.458019 15.3467 0.229195C16.1215 0.000371471 16.9555 0.0887182 17.6652 0.4748C18.3749 0.860882 18.9021 1.51307 19.1309 2.2879C21.5213 10.3946 29.5603 25.5665 40.9609 31.7717C41.565 32.0996 42.0405 32.6222 42.3101 33.2545C42.5797 33.8868 42.6275 34.5917 42.4457 35.2547C42.264 35.9176 41.8634 36.4996 41.3091 36.9061C40.7548 37.3125 40.0793 37.5196 39.3924 37.4936Z" fill="#98DF70"/>
<path d="M57.4322 64.8547C68.2392 56.5514 68.5238 38.7882 58.0678 25.1793C47.6119 11.5705 30.3749 7.26945 19.5678 15.5727C8.76082 23.8759 8.47622 41.6392 18.9322 55.248C29.3881 68.8569 46.6251 73.1579 57.4322 64.8547Z" fill="#97EF52"/>
<path d="M38.0401 15.6907C38.3925 15.673 38.7441 15.7348 39.0671 15.8713C49.2844 20.178 56.96 31.5689 59.6246 38.1741C59.8445 38.7186 59.8319 39.326 59.5894 39.8629C59.347 40.3997 58.8947 40.822 58.332 41.0369C57.7693 41.2517 57.1423 41.2415 56.5889 41.0084C56.0355 40.7754 55.6011 40.3386 55.3812 39.7942C53.0833 34.0979 46.1262 23.6661 37.2363 19.92C36.7652 19.7222 36.3776 19.3756 36.1365 18.9367C35.8953 18.4977 35.8147 17.9921 35.9079 17.5021C36.001 17.0121 36.2624 16.5664 36.6495 16.2376C37.0366 15.9087 37.5267 15.716 38.0401 15.6907Z" fill="#F7F9F5"/>
<circle cx="60.4347" cy="46.6112" r="2.74184" fill="#F7F9F5"/>
</svg>
