<svg width="45" height="42" viewBox="0 0 45 42" fill="none" xmlns="http://www.w3.org/2000/svg">
<path d="M0.168777 21.3478C0.499245 19.8581 1.03362 18.7753 0.759403 17.2463C0.611748 16.4194 0.506275 15.5269 0.555496 14.6639C0.629322 13.5384 1.39573 12.5081 2.12698 11.8322C2.64729 11.3498 3.22034 10.9627 3.85315 10.7034C4.55276 10.4114 5.24534 10.08 5.98362 9.96516C6.79924 9.83719 7.62542 9.86672 8.44104 9.95532C11.9356 10.3359 14.3719 12.2588 16.9981 14.2308C17.2864 14.4506 17.5711 14.6606 17.8489 14.8739C18.6785 15.517 19.4731 16.1634 20.2957 16.8919C20.6473 17.2036 21.0129 17.5645 21.4559 17.6728C21.5262 17.6892 21.5895 17.7155 21.6633 17.7188C21.7336 17.722 21.8074 17.7122 21.8813 17.7056C21.0727 17.3053 20.4926 16.5933 20.6262 15.668C20.6578 15.435 20.6824 15.1922 20.7317 14.9592C20.7633 14.8181 20.802 14.6803 20.8617 14.5458C20.9848 14.2734 21.1992 13.9847 21.2379 13.7025C21.3258 13.0364 20.7246 12.5508 21.0305 11.8716C21.3399 11.1956 21.7828 10.6542 22.2961 10.0964C22.5176 9.85032 22.6723 9.65344 22.8375 9.37125C22.9641 9.16125 23.0379 8.87907 23.1785 8.68875C23.6074 8.11453 24.3879 7.875 25.0981 7.77C25.5481 7.70438 26.0227 7.75688 26.4657 7.8586C30.375 8.77735 34.3231 11.5763 34.766 15.5236C35.5817 15.5597 36.3657 15.6877 37.1742 15.8616C37.8 15.9961 38.4223 16.2553 39.0481 16.4194C40.2785 16.7442 41.4598 17.2725 42.5883 17.9189C43.5024 18.4439 45.0352 18.9656 44.8875 20.3963C44.8524 20.7113 44.7821 21.0066 44.6907 21.2953C44.3532 22.3519 43.6606 23.2181 42.8696 23.8875C40.4895 25.8956 37.4274 27.0867 34.3301 27.5231C34.302 27.7988 34.2317 28.0941 34.2106 28.2352C34.1508 28.642 34.1121 29.0883 33.9715 29.4788C33.5004 30.765 32.1117 32.3334 30.4735 31.8675C29.1727 31.5 29.0672 29.8134 29.1621 28.7733C29.2008 28.3402 29.4328 27.9431 29.7246 27.6019C29.2606 27.5527 28.8 27.5002 28.3535 27.4116C27.9985 27.3459 27.6434 27.2606 27.2918 27.1655C27.1301 27.3656 26.993 27.5297 26.9438 27.5789C25.8926 28.5797 22.4051 29.8692 21.9375 27.6741C21.8285 27.1589 21.9516 26.7127 22.3137 26.3025C22.5106 26.0794 22.8129 25.8366 23.1047 25.6659C22.7039 25.5019 22.2996 25.3477 21.8883 25.2361C21.3961 25.1081 20.8864 25.072 20.4539 25.41C19.5891 26.0925 19.1321 27.3164 18.5801 28.2188C17.9121 29.3048 17.202 30.3745 16.3969 31.3753C14.7024 33.472 12.5227 35.0634 9.85432 35.9133C7.30901 36.7238 3.56136 37.4916 2.83714 34.1611C2.66838 33.3736 2.48909 32.5566 2.05667 31.838C1.13557 30.3056 0.372681 28.665 0.270729 26.8898C0.217995 26.0302 0.425415 25.1934 0.400806 24.337C0.36565 23.3363 -0.056221 22.3584 0.168777 21.3478Z" fill="#F79329"/>
<mask id="mask0_1352_3602" style="mask-type:luminance" maskUnits="userSpaceOnUse" x="0" y="7" width="45" height="30">
<path d="M0.168777 21.3478C0.499245 19.8581 1.03362 18.7753 0.759403 17.2463C0.611748 16.4194 0.506275 15.5269 0.555496 14.6639C0.629322 13.5384 1.39573 12.5081 2.12698 11.8322C2.64729 11.3498 3.22034 10.9627 3.85315 10.7034C4.55276 10.4114 5.24534 10.08 5.98362 9.96516C6.79924 9.83719 7.62542 9.86672 8.44104 9.95532C11.9356 10.3359 14.3719 12.2588 16.9981 14.2308C17.2864 14.4506 17.5711 14.6606 17.8489 14.8739C18.6785 15.517 19.4731 16.1634 20.2957 16.8919C20.6473 17.2036 21.0129 17.5645 21.4559 17.6728C21.5262 17.6892 21.5895 17.7155 21.6633 17.7188C21.7336 17.722 21.8074 17.7122 21.8813 17.7056C21.0727 17.3053 20.4926 16.5933 20.6262 15.668C20.6578 15.435 20.6824 15.1922 20.7317 14.9592C20.7633 14.8181 20.802 14.6803 20.8617 14.5458C20.9848 14.2734 21.1992 13.9847 21.2379 13.7025C21.3258 13.0364 20.7246 12.5508 21.0305 11.8716C21.3399 11.1956 21.7828 10.6542 22.2961 10.0964C22.5176 9.85032 22.6723 9.65344 22.8375 9.37125C22.9641 9.16125 23.0379 8.87907 23.1785 8.68875C23.6074 8.11453 24.3879 7.875 25.0981 7.77C25.5481 7.70438 26.0227 7.75688 26.4657 7.8586C30.375 8.77735 34.3231 11.5763 34.766 15.5236C35.5817 15.5597 36.3657 15.6877 37.1742 15.8616C37.8 15.9961 38.4223 16.2553 39.0481 16.4194C40.2785 16.7442 41.4598 17.2725 42.5883 17.9189C43.5024 18.4439 45.0352 18.9656 44.8875 20.3963C44.8524 20.7113 44.7821 21.0066 44.6907 21.2953C44.3532 22.3519 43.6606 23.2181 42.8696 23.8875C40.4895 25.8956 37.4274 27.0867 34.3301 27.5231C34.302 27.7988 34.2317 28.0941 34.2106 28.2352C34.1508 28.642 34.1121 29.0883 33.9715 29.4788C33.5004 30.765 32.1117 32.3334 30.4735 31.8675C29.1727 31.5 29.0672 29.8134 29.1621 28.7733C29.2008 28.3402 29.4328 27.9431 29.7246 27.6019C29.2606 27.5527 28.8 27.5002 28.3535 27.4116C27.9985 27.3459 27.6434 27.2606 27.2918 27.1655C27.1301 27.3656 26.993 27.5297 26.9438 27.5789C25.8926 28.5797 22.4051 29.8692 21.9375 27.6741C21.8285 27.1589 21.9516 26.7127 22.3137 26.3025C22.5106 26.0794 22.8129 25.8366 23.1047 25.6659C22.7039 25.5019 22.2996 25.3477 21.8883 25.2361C21.3961 25.1081 20.8864 25.072 20.4539 25.41C19.5891 26.0925 19.1321 27.3164 18.5801 28.2188C17.9121 29.3048 17.202 30.3745 16.3969 31.3753C14.7024 33.472 12.5227 35.0634 9.85432 35.9133C7.30901 36.7238 3.56136 37.4916 2.83714 34.1611C2.66838 33.3736 2.48909 32.5566 2.05667 31.838C1.13557 30.3056 0.372681 28.665 0.270729 26.8898C0.217995 26.0302 0.425415 25.1934 0.400806 24.337C0.36565 23.3363 -0.056221 22.3584 0.168777 21.3478Z" fill="white"/>
</mask>
<g mask="url(#mask0_1352_3602)">
<path d="M6.94688 11.1825C5.99415 12.1242 5.78321 13.3908 5.95196 14.7033C6.11368 15.9108 6.76407 17.2922 6.59883 18.5128C6.44766 19.6481 5.63204 20.7276 5.46329 21.9056C5.27345 23.2345 6.0047 24.4026 6.57774 25.5708C7.30899 27.0506 7.46368 28.2581 7.14024 29.8626C6.70782 32.0315 7.63243 34.4006 9.98438 35.2275C10.4977 35.408 11.1445 35.257 11.707 35.3226C12.027 36.3694 9.43595 36.8648 8.71524 37.0158C7.44962 37.275 6.11016 37.6064 4.8129 37.334C3.93751 37.1503 3.20274 36.6286 2.67188 35.9855C1.8668 35.0076 1.11095 34.0561 0.50626 32.9273C0.0808678 32.1365 -0.246086 31.3917 -0.428898 30.5222C-0.608194 29.6592 -0.910542 28.8487 -0.952728 27.9694C-1.01249 26.7389 -1.3746 25.5347 -1.41327 24.2976C-1.45546 22.9753 -1.50117 21.6562 -1.50117 20.3339C-1.50117 18.7884 -1.40272 17.2462 -1.40976 15.7106C-1.41327 14.7492 -1.33944 13.8534 -1.06874 12.9215C-0.798037 11.9864 -0.158195 10.7887 0.77696 10.2867C1.26915 10.0209 1.79649 9.86342 2.26056 9.54186C2.6543 9.26623 3.20626 9.0103 3.71954 8.94467C5.63204 8.69858 8.25821 8.61327 9.79806 9.84373C8.89454 10.0012 8.29337 10.2014 7.52696 10.7133C7.30899 10.8544 7.11563 11.0119 6.94688 11.1825ZM27.9914 8.88233C27.682 8.93155 27.4254 8.98077 27.3481 9.01358C26.1914 9.53202 26.0402 10.5853 25.8856 11.6451C25.8188 12.1012 25.6992 12.449 25.4742 12.8526C24.743 14.1717 23.4211 15.1856 24.3703 16.777C24.5566 17.0822 24.6902 17.174 24.307 17.3709C23.8043 17.6269 22.9535 17.7286 22.384 17.7417C21.4137 17.7647 20.9566 17.4005 20.475 16.6687C19.6875 15.4612 19.35 13.4859 19.7367 12.1078C19.909 11.4844 20.1902 10.9003 20.3484 10.267C20.5453 9.47623 20.7703 8.71827 21.2941 8.05545C21.818 7.38936 22.3629 6.90702 23.2137 6.60514C23.9977 6.32952 25.0313 6.23764 25.8363 6.47389C26.5992 6.69702 27.3129 7.10389 28.0477 7.45827C28.3957 7.62561 29.6191 8.14405 29.4961 8.65592C29.4891 8.67233 28.6277 8.78061 27.9914 8.88233Z" fill="#ED6C30"/>
</g>
<path d="M12.6949 16.7573C13.05 17.2954 13.1695 17.9254 12.2098 17.8729C11.7281 17.8467 11.25 17.6465 10.807 17.4923C10.2445 17.2987 9.67851 17.0953 9.17578 16.7803C8.19843 16.1634 8.66601 15.1659 9.74531 15.1068C10.7156 15.0511 11.9496 15.8287 12.5156 16.5145C12.5824 16.5932 12.6387 16.6753 12.6949 16.7573ZM12.4488 21.5282C12.607 21.5972 12.7652 21.6693 12.9305 21.7481C13.2082 21.8826 13.5457 21.9647 13.4719 22.319C13.3207 23.0573 11.5066 23.1426 10.9301 23.1853C10.0441 23.2509 8.28984 23.3526 8.39882 22.0532C8.42695 21.6857 8.63085 21.3314 9.01406 21.164C9.42187 20.9868 9.89296 20.9409 10.343 20.9803C11.1305 21.0525 11.7738 21.2395 12.4488 21.5282ZM12.8918 27.1031C13.0676 27.172 13.1906 27.3098 13.2187 27.5723C13.3277 28.6322 11.1727 30.0562 10.1355 29.9512C9.56601 29.8922 9.48515 29.2293 9.53788 28.8093C9.58007 28.4812 9.74179 28.2909 9.97382 28.0382C10.3887 27.5822 10.9723 27.3098 11.598 27.195C11.9672 27.1261 12.5367 26.9653 12.8918 27.1031Z" fill="white"/>
<path d="M39.3257 22.0697C40.0851 22.1091 40.732 21.502 40.7706 20.708C40.7917 20.2486 40.5984 19.8319 40.2925 19.5497C40.0675 19.3463 39.7792 19.215 39.4593 19.1986C39.4312 19.1986 39.4031 19.1986 39.3714 19.2019C38.6472 19.2085 38.046 19.7991 38.0039 20.557C37.9722 21.3544 38.5628 22.027 39.3257 22.0697Z" fill="#2F2F2F"/>
</svg>
