<svg width="65" height="63" viewBox="0 0 65 63" fill="none" xmlns="http://www.w3.org/2000/svg">
<path d="M52.7028 12.4268L51.2606 18.3901C53.7756 20.9745 55.5682 24.1385 56.4687 27.5822C56.9971 27.5121 57.5335 27.6355 57.973 27.9283C58.4126 28.2211 58.7237 28.6622 58.8455 29.1654C58.9674 29.6687 58.8913 30.1979 58.632 30.6496C58.3728 31.1014 57.9491 31.4432 57.4437 31.6083C57.9256 31.7652 58.3343 32.0831 58.5967 32.5052C58.8591 32.9273 58.9581 33.426 58.8761 33.9123C58.7941 34.3986 58.5363 34.8408 58.1489 35.1599C57.7615 35.479 57.2696 35.6542 56.7612 35.6542C56.2528 35.6542 55.7609 35.479 55.3735 35.1599C54.9861 34.8408 54.7283 34.3986 54.6463 33.9123C54.5643 33.426 54.6633 32.9273 54.9257 32.5052C55.1881 32.0831 55.5968 31.7652 56.0787 31.6083C55.649 31.4682 55.2762 31.1997 55.0139 30.8413C54.7516 30.4829 54.6133 30.0531 54.619 29.6138C54.6246 29.1744 54.7739 28.7481 55.0453 28.3961C55.3167 28.0442 55.6963 27.7847 56.1295 27.6551C54.1612 27.4956 50.6735 30.8956 46.1053 35.3529C43.5703 37.8236 40.7021 40.6193 37.576 43.3125L37.2815 43.3519C30.2006 44.3363 20.6882 45.6593 14.5315 27.9346C15.197 25.1964 16.4269 22.6168 18.1471 20.351L16.2946 14.5963C16.1792 14.2382 16.1718 13.8556 16.2733 13.4935C16.3747 13.1315 16.5807 12.805 16.8672 12.5527C17.1536 12.3003 17.5084 12.1325 17.8899 12.069C18.2715 12.0056 18.6637 12.0491 19.0206 12.1945L24.836 14.5648C26.5475 13.6157 28.3854 12.8989 30.2981 12.4346L33.739 5.10696C33.8992 4.76567 34.1566 4.47583 34.481 4.2715C34.8053 4.06718 35.1832 3.95688 35.57 3.95357C35.9568 3.95026 36.3366 4.05408 36.6646 4.25283C36.9926 4.45157 37.2553 4.73697 37.4217 5.07546L41.0637 12.5016C41.9155 12.7195 42.7449 12.9852 43.552 13.2989L49.8062 10.2218C50.1513 10.0521 50.5391 9.98152 50.9242 10.0183C51.3093 10.055 51.6755 10.1976 51.9798 10.4293C52.284 10.6609 52.5137 10.9719 52.6418 11.3258C52.7699 11.6797 52.791 12.0616 52.7028 12.4268ZM14.1984 33.1616C14.1984 30.1455 11.9335 25.5938 7.36323 25.5938C6.21964 25.5938 6.13636 26.7258 6.13636 29.5313V39.314C6.14313 39.4098 6.14719 39.5174 6.14854 39.6369C6.15667 40.3456 6.17089 41.3438 7.87104 41.3438C10.3471 41.3438 14.1984 38.7608 14.1984 33.1616Z" fill="#F3AD61"/>
<path d="M31.4539 53.2743L33.7391 58.1372C33.8993 58.4784 34.1567 58.7683 34.481 58.9726C34.8054 59.1769 35.1832 59.2872 35.57 59.2905C35.9569 59.2938 36.3366 59.19 36.6646 58.9913C36.9927 58.7925 37.2553 58.5071 37.4217 58.1686L39.843 53.233C42.9235 52.6275 45.8299 51.3756 48.358 49.5652L51.9005 51.3076C52.2455 51.4772 52.6334 51.5478 53.0185 51.511C53.4035 51.4743 53.7697 51.3317 54.074 51.1001C54.3783 50.8684 54.608 50.5574 54.7361 50.2035C54.8642 49.8496 54.8853 49.4677 54.797 49.1026L53.6067 44.1866C55.9086 40.7819 57.1329 36.799 57.1289 32.7285C57.1289 31.0078 56.9136 29.3343 56.5094 27.7337C53.6534 26.6765 46.3978 25.2649 41.3867 35.5595C39.0711 40.318 20.7756 45.9033 14.5336 27.9326C14.1619 29.4721 13.9648 31.0786 13.9648 32.7285C13.9648 37.0735 15.3319 41.1114 17.6719 44.4543L16.2967 48.7324C16.1818 49.0904 16.1748 49.4728 16.2765 49.8345C16.3781 50.1962 16.5843 50.5223 16.8706 50.7744C17.1569 51.0265 17.5115 51.1941 17.8928 51.2575C18.274 51.3209 18.666 51.2775 19.0226 51.1323L22.7845 49.5987C25.3577 51.4304 28.319 52.6846 31.4539 53.2704" fill="#FBB8AB"/>
<path d="M43.5642 20.8077C43.613 20.475 43.808 15.7165 42.6786 15.4212C41.5492 15.1259 39.1442 19.339 39.0447 19.6225C38.9228 19.9769 38.74 21.4889 40.6331 22.1386C40.9146 22.2503 41.217 22.3042 41.521 22.2969C41.8251 22.2896 42.1243 22.2212 42.3998 22.0961C42.6752 21.9711 42.9209 21.792 43.1214 21.5702C43.3218 21.3485 43.4726 21.0888 43.5642 20.8077ZM32.372 23.8711C34.4033 23.8711 40.7509 27.3164 41.2587 28.1787C41.7666 29.039 41.8316 34.6362 41.2587 35.8686C40.69 37.0991 36.8164 39.497 33.3572 39.9282C30.8141 40.2452 28.4375 39.9262 28.4375 37.1601V26.5781C28.4375 24.9795 29.833 23.8711 32.372 23.8711ZM26.6317 16.2087C27.6189 15.5984 31.1167 18.9453 31.3361 19.2032C31.6103 19.526 32.1486 21.2841 30.3753 22.2016C28.6041 23.117 27.5762 21.9693 27.3894 21.6424C27.237 21.3806 25.6466 16.819 26.6317 16.2087Z" fill="#D3883E"/>
<path d="M46.2718 30.5471C46.2718 30.8735 46.4056 31.1864 46.6437 31.4172C46.8818 31.648 47.2047 31.7776 47.5414 31.7776C47.8781 31.7776 48.201 31.648 48.4391 31.4172C48.6772 31.1864 48.8109 30.8735 48.8109 30.5471C48.8109 30.2208 48.6772 29.9078 48.4391 29.677C48.201 29.4463 47.8781 29.3167 47.5414 29.3167C47.2047 29.3167 46.8818 29.4463 46.6437 29.677C46.4056 29.9078 46.2718 30.2208 46.2718 30.5471Z" fill="#1C1C1C"/>
</svg>
