<svg width="56" height="26" viewBox="0 0 56 26" fill="none" xmlns="http://www.w3.org/2000/svg">
<path d="M5.44448 8.66663C5.44448 10.2931 6.60259 11.7938 8.55559 13.0007L8.5517 13.0018C6.52938 14.2504 5.43857 15.771 5.44448 17.3333C9.91359 16.9866 13.4533 15.6736 14.4776 13.9955L14.4823 13.9934C16.3761 15.908 23.625 17.3333 32.2778 17.3333C42.3726 17.3333 50.5556 15.393 50.5556 13C50.5556 10.6069 42.3726 8.66663 32.2778 8.66663C23.6235 8.66663 16.3738 10.0927 14.4823 12.0076L14.4885 12.0091C13.4921 10.3436 10.0194 9.03424 5.61404 8.66663" fill="#D0D0D0"/>
<ellipse cx="46.9" cy="12.2778" rx="0.700001" ry="0.722222" fill="black"/>
</svg>
