<svg width="67" height="64" viewBox="0 0 67 64" fill="none" xmlns="http://www.w3.org/2000/svg">
<path d="M0.282654 37.0799C0.554841 36.1699 1.06258 35.4249 1.5232 34.7399C1.81633 34.3149 2.14086 33.8249 2.32407 33.3499C2.52297 32.8099 2.78992 32.3349 3.04641 31.8799C3.28719 31.4549 3.51226 31.0599 3.62218 30.6899C3.82633 30.0349 3.70594 29.2199 3.56984 28.3599C3.52797 28.1049 3.49133 27.8549 3.45992 27.6049C3.32906 26.5949 3.13539 25.5949 2.87891 24.6299C2.84227 24.5099 2.78468 24.3249 2.7114 24.0949C1.8739 21.4949 1.61742 20.1849 2.31882 19.2849C2.64336 18.8599 3.15633 18.6199 3.71117 18.6199C4.5068 18.6199 5.1925 19.1249 5.70547 19.5649C6.16086 19.9549 6.50633 20.4049 6.80992 20.8049L7.0507 21.1249C7.54273 21.7499 8.04 22.3649 8.5425 22.9799C9.20727 23.8049 9.87726 24.6349 10.5368 25.4799C10.6938 25.6749 10.8509 25.9099 11.0288 26.1599C11.2905 26.5499 11.9134 27.4599 12.2484 27.5349C12.4473 27.5349 12.8347 27.3549 13.1488 27.2099L13.3843 27.1049C15.1902 26.2849 17.1426 25.4149 19.1735 24.6099C19.6498 23.6749 20.3827 22.8349 20.9061 21.9349C21.5813 20.7649 22.2409 18.5749 24.0101 18.9549C25.2977 19.2349 26.6063 20.7499 27.538 21.5749C27.6637 21.6849 27.7788 21.7849 27.8783 21.8799C31.7412 20.8749 35.599 20.0899 39.5666 19.8849C39.8702 18.9799 39.8284 17.9199 39.7341 16.9499C39.6242 15.8199 39.3311 14.3249 41.0689 14.8249C42.2048 15.1499 43.2098 16.0999 44.1415 16.7749C45.5966 17.8349 46.811 19.0899 47.9783 20.4299C49.2031 20.6599 50.4018 20.9449 51.5534 21.3099C55.6257 22.5999 59.1851 24.7049 62.1373 27.5749C63.0009 28.4199 63.807 29.3249 64.5346 30.2549C64.9167 30.7399 65.2884 31.2449 65.6391 31.7799L65.8641 32.1049C66.1625 32.5349 66.4975 33.0199 66.7226 33.6549C67.1727 34.9249 66.3457 35.7749 65.9531 36.1849L65.7228 36.3849C65.7176 36.4999 65.7228 36.5849 65.728 36.6599C65.749 37.1199 65.7385 37.5899 65.257 38.2999C63.7652 40.4849 61.1532 41.8399 59.2427 42.8299L58.8553 43.0349C56.7406 44.1399 54.4689 44.9799 51.9198 45.6199C50.5274 45.9649 49.1351 46.2499 47.7532 46.4799C47.3397 46.7899 46.9366 47.0499 46.8372 47.1099C45.2459 48.1299 43.2098 49.2399 41.2312 49.2399C39.7027 49.2399 40.9066 47.7749 41.3306 47.2399C41.3673 47.1949 41.3987 47.1449 41.4405 47.0949C40.938 47.1099 40.4198 47.1499 39.933 47.1499C38.7396 47.1499 37.5619 47.0999 36.4208 47.0049C33.1545 46.7299 29.7574 45.9349 26.3237 44.6449C26.2347 44.6099 26.1509 44.5749 26.0672 44.5399C25.9311 44.5599 25.795 44.5799 25.706 44.5949C24.5388 44.7949 23.3401 45.2499 22.1414 45.1699C20.4769 45.0549 20.4455 44.2599 19.8854 42.9949C19.6184 42.4149 19.4562 41.8149 19.2049 41.2349C19.1735 41.1649 19.1369 41.0799 19.1002 41.0049C17.5718 40.0399 16.0329 38.9499 14.4678 37.7149C13.9391 37.3049 13.3686 36.9399 12.7614 36.5549C12.149 36.1599 11.5104 35.7549 10.7933 35.2549C10.207 35.2549 9.11305 36.0199 8.58961 36.3849L7.99812 36.7949C6.95648 37.5199 5.8782 38.2699 4.66383 38.8649C4.11422 39.1349 3.06734 39.5899 2.18273 39.5899C1.28242 39.5899 0.800859 39.1449 0.591484 38.8849C0.282656 38.5599 0.0209351 37.9699 0.282654 37.0799Z" fill="#BBCD64"/>
<path d="M14.3055 34.29C14.9494 34.695 15.6036 35.115 16.2422 35.615C20.0581 38.61 23.6855 40.74 27.3339 42.11C30.5111 43.305 33.6413 44.04 36.6406 44.29C38.593 44.46 40.6554 44.47 42.7753 44.33C45.1988 44.165 47.6851 43.785 50.1872 43.215C49.8679 42.54 49.6061 41.835 49.4072 41.12C49.1665 40.265 49.0827 39.15 49.1665 38.18C48.7948 38.3 48.4336 38.41 48.062 38.54C46.8895 38.955 45.6961 39.225 44.5079 39.235C43.618 39.235 42.9794 38.435 42.2833 37.675C41.5243 36.84 40.7234 36.02 40.5664 34.31C40.5245 33.905 40.3832 33.34 40.5769 33.045C40.8019 32.69 41.3149 32.75 41.5976 32.675C41.9744 32.585 42.3408 32.545 42.7072 32.5C43.7751 32.37 44.7696 32.445 45.8217 32.665C47.0151 32.91 48.2347 33.245 49.3915 33.79C49.5433 33.86 49.6899 33.95 49.8417 34.035C50.072 33.085 50.4489 32.16 50.8048 31.25C51.0822 30.54 51.2654 29.825 51.9197 29.325C52.2704 29.055 53.1655 28.81 53.333 29.395C53.4011 29.64 53.244 29.995 53.0556 30.33C52.9038 30.6 52.7415 30.855 52.6735 31.04C52.1919 32.38 51.9669 33.79 51.747 35.18C51.4801 36.835 51.412 38.23 51.5324 39.91C51.59 40.705 51.8203 41.47 52.1029 42.14C52.1815 42.32 52.2704 42.495 52.3699 42.665C54.2124 42.13 55.8926 41.475 57.4629 40.655L57.8555 40.45C59.5619 39.565 61.6871 38.46 62.8491 36.805C62.8386 36.675 62.8334 36.52 62.8439 36.325C62.4722 35.8 61.5301 35.995 61.0223 36.165C60.368 36.385 59.7451 36.805 59.0542 36.745C58.3894 36.69 58.1434 36.05 58.5046 35.54C58.8501 35.04 59.6928 34.805 60.2319 34.55C60.8496 34.255 61.5824 34.125 62.2472 33.945C62.6659 33.83 63.1056 33.785 63.5453 33.775C63.5139 33.73 63.4929 33.69 63.4615 33.645C63.3726 33.515 63.2783 33.385 63.1998 33.255C62.8962 32.79 62.5612 32.345 62.2315 31.915C61.5772 31.08 60.8601 30.275 60.0801 29.515C59.4572 28.91 58.7977 28.34 58.1172 27.815C57.6671 27.495 56.5626 26.9 54.9086 27.195C53.1551 27.51 52.1186 28.315 49.0304 27.85C45.9368 27.385 45.5757 26 42.5607 26C39.5457 26 38.4883 28.25 34.7981 28.42C31.5109 28.565 31.2126 26.695 28.0562 27.145C24.8999 27.59 24.6015 30.495 20.346 30.495C16.0904 30.495 15.4885 29.045 11.0393 32.14C11.055 32.28 11.0916 32.425 11.1335 32.575C11.6988 32.64 12.2222 32.84 12.6619 33.18C13.1644 33.56 13.7193 33.915 14.3055 34.29" fill="#C6E47A"/>
<mask id="mask0_1352_3597" style="mask-type:luminance" maskUnits="userSpaceOnUse" x="11" y="26" width="53" height="19">
<path d="M14.3055 34.29C14.9494 34.695 15.6036 35.115 16.2422 35.615C20.0581 38.61 23.6855 40.74 27.3339 42.11C30.5111 43.305 33.6413 44.04 36.6406 44.29C38.593 44.46 40.6554 44.47 42.7753 44.33C45.1988 44.165 47.6851 43.785 50.1872 43.215C49.8679 42.54 49.6061 41.835 49.4072 41.12C49.1665 40.265 49.0827 39.15 49.1665 38.18C48.7948 38.3 48.4336 38.41 48.062 38.54C46.8895 38.955 45.6961 39.225 44.5079 39.235C43.618 39.235 42.9794 38.435 42.2833 37.675C41.5243 36.84 40.7234 36.02 40.5664 34.31C40.5245 33.905 40.3832 33.34 40.5769 33.045C40.8019 32.69 41.3149 32.75 41.5976 32.675C41.9744 32.585 42.3408 32.545 42.7072 32.5C43.7751 32.37 44.7696 32.445 45.8217 32.665C47.0151 32.91 48.2347 33.245 49.3915 33.79C49.5433 33.86 49.6899 33.95 49.8417 34.035C50.072 33.085 50.4489 32.16 50.8048 31.25C51.0822 30.54 51.2654 29.825 51.9197 29.325C52.2704 29.055 53.1655 28.81 53.333 29.395C53.4011 29.64 53.244 29.995 53.0556 30.33C52.9038 30.6 52.7415 30.855 52.6735 31.04C52.1919 32.38 51.9669 33.79 51.747 35.18C51.4801 36.835 51.412 38.23 51.5324 39.91C51.59 40.705 51.8203 41.47 52.1029 42.14C52.1815 42.32 52.2704 42.495 52.3699 42.665C54.2124 42.13 55.8926 41.475 57.4629 40.655L57.8555 40.45C59.5619 39.565 61.6871 38.46 62.8491 36.805C62.8386 36.675 62.8334 36.52 62.8439 36.325C62.4722 35.8 61.5301 35.995 61.0223 36.165C60.368 36.385 59.7451 36.805 59.0542 36.745C58.3894 36.69 58.1434 36.05 58.5046 35.54C58.8501 35.04 59.6928 34.805 60.2319 34.55C60.8496 34.255 61.5824 34.125 62.2472 33.945C62.6659 33.83 63.1056 33.785 63.5453 33.775C63.5139 33.73 63.4929 33.69 63.4615 33.645C63.3726 33.515 63.2783 33.385 63.1998 33.255C62.8962 32.79 62.5612 32.345 62.2315 31.915C61.5772 31.08 60.8601 30.275 60.0801 29.515C59.4572 28.91 58.7977 28.34 58.1172 27.815C57.6671 27.495 56.5626 26.9 54.9086 27.195C53.1551 27.51 52.1186 28.315 49.0304 27.85C45.9368 27.385 45.5757 26 42.5607 26C39.5457 26 38.4883 28.25 34.7981 28.42C31.5109 28.565 31.2126 26.695 28.0562 27.145C24.8999 27.59 24.6015 30.495 20.346 30.495C16.0904 30.495 15.4885 29.045 11.0393 32.14C11.055 32.28 11.0916 32.425 11.1335 32.575C11.6988 32.64 12.2222 32.84 12.6619 33.18C13.1644 33.56 13.7193 33.915 14.3055 34.29Z" fill="white"/>
</mask>
<g mask="url(#mask0_1352_3597)">
<path d="M24.9999 42.304C24.9999 42.304 21.9878 43.3451 16.6675 43.2264C12.1661 43.1264 7.99988 41 7.99988 41L8.14833 41.8699L9.00072 42.1208C9.00072 42.1208 12.4917 45.892 16.5494 45.9954C17.9972 46.031 20.0946 45.8598 21.3908 45.4274C23.7325 44.6406 24.8738 43.3485 24.8738 43.3485L24.9999 42.304Z" fill="white"/>
</g>
<path d="M57.9445 30.48C58.9129 30.53 59.6719 31.42 59.6195 32.455C59.5672 33.495 58.7401 34.29 57.7718 34.24C56.793 34.185 56.034 33.305 56.0863 32.265C56.1439 31.23 56.9709 30.425 57.9445 30.48Z" fill="#2F2F2F"/>
</svg>
