<svg width="127" height="127" viewBox="0 0 127 127" fill="none" xmlns="http://www.w3.org/2000/svg">
<path d="M64.3924 66.4936C63.9209 66.4761 63.4599 66.3494 63.0458 66.1234C49.9431 58.99 41.0599 42.4138 38.288 33.0135C38.0592 32.2386 38.1475 31.4046 38.5336 30.695C38.9197 29.9853 39.5719 29.458 40.3467 29.2292C41.1215 29.0004 41.9555 29.0887 42.6652 29.4748C43.3749 29.8609 43.9021 30.5131 44.131 31.2879C46.5213 39.3946 54.5604 54.5665 65.9609 60.7717C66.565 61.0996 67.0405 61.6222 67.3101 62.2545C67.5797 62.8868 67.6275 63.5917 67.4458 64.2547C67.264 64.9176 66.8635 65.4996 66.3091 65.9061C65.7548 66.3125 65.0793 66.5196 64.3924 66.4936Z" fill="#98DF70"/>
<path d="M82.4322 93.8547C93.2392 85.5514 93.5238 67.7882 83.0678 54.1793C72.6119 40.5705 55.3749 36.2694 44.5678 44.5727C33.7608 52.8759 33.4762 70.6392 43.9322 84.248C54.3881 97.8569 71.6251 102.158 82.4322 93.8547Z" fill="#97EF52"/>
<path d="M63.0401 44.6907C63.3925 44.673 63.7441 44.7348 64.0671 44.8713C74.2844 49.178 81.96 60.5689 84.6246 67.1741C84.8445 67.7186 84.8319 68.326 84.5894 68.8629C84.347 69.3997 83.8947 69.822 83.332 70.0369C82.7693 70.2517 82.1423 70.2415 81.5889 70.0084C81.0355 69.7754 80.6011 69.3386 80.3812 68.7942C78.0833 63.0979 71.1262 52.6661 62.2363 48.92C61.7652 48.7222 61.3776 48.3756 61.1365 47.9367C60.8953 47.4977 60.8147 46.9921 60.9079 46.5021C61.001 46.0121 61.2624 45.5664 61.6495 45.2376C62.0366 44.9087 62.5267 44.716 63.0401 44.6907Z" fill="#F7F9F5"/>
<circle cx="85.4347" cy="75.6112" r="2.74184" fill="#F7F9F5"/>
<g opacity="0.8" clip-path="url(#clip0_529_359)">
<path d="M17.6709 37.5155C23.8891 38.986 34.2186 40.1904 43.8966 41.3599C52.6348 42.4183 59.082 44.5799 60.2557 52.0967C60.7888 55.5109 61.9828 65.8635 63.7346 78.058C64.9286 77.5485 66.0607 77.2196 67.3057 77.137L67.2393 76.7311C65.0783 63.647 62.8881 52.4249 62.3254 48.801C61.1372 41.1311 66.7895 41.2456 75.0582 37.5069C78.821 35.8043 96.1888 28.9707 101.986 26.7703C106.848 24.9241 104.553 23.0801 102.718 21.6333C102.666 21.9739 102.368 22.3154 101.686 22.6425C97.3222 24.731 70.2519 34.4959 63.8002 37.4383C59.2506 39.5123 52.7379 38.0257 44.9472 36.1919C37.1569 34.3611 17.9387 32.9046 14.0614 32.1029C13.3749 31.9702 12.7262 31.6876 12.1616 31.2751C11.9012 31.4773 11.6343 31.6774 11.3949 31.8949C11.5936 31.8546 11.7535 31.8048 11.9653 31.7686C13.4079 31.5185 12.0497 36.1878 17.6709 37.5155Z" fill="#F5F8FA"/>
<path d="M8.20676 49.5322C9.70655 57.228 13.5614 76.7444 14.221 85.6833C14.6554 91.5886 16.5399 95.7609 19.3256 98.5625C19.7865 97.4562 20.9784 96.4159 23.1009 95.6869C34.161 91.882 51.9238 83.7785 59.0456 80.3338C60.9345 79.4208 62.384 78.6384 63.7381 78.0605C61.9863 65.8661 60.7923 55.5134 60.2592 52.0992C59.0855 44.5824 52.6383 42.4208 43.9001 41.3624C34.2186 40.1904 23.8891 38.9859 17.6709 37.5154C12.0496 36.1878 13.4079 31.5184 11.9648 31.7655C11.7561 31.8012 11.5966 31.8541 11.3944 31.8918C6.96581 35.9348 6.81464 42.4067 8.20676 49.5322Z" fill="#ADD3E0"/>
<path d="M113.855 85.6169C115.189 85.7098 116.627 86.1438 117.976 86.7843C118.874 83.8267 118.024 80.3098 117.185 76.2506C115.671 68.9206 112.583 45.6006 111.466 34.888C110.538 25.9973 106.953 22.3388 102.572 21.035C102.637 21.119 102.684 21.2153 102.71 21.318C102.736 21.4207 102.741 21.5277 102.724 21.6324C104.556 23.0796 106.851 24.9236 101.992 26.7693C96.1918 28.9702 78.8275 35.8064 75.0643 37.506C66.7956 41.2447 61.1432 41.1302 62.3314 48.8C62.8942 52.424 65.0848 63.6491 67.2453 76.7302L67.3118 77.136C68.7568 77.0409 70.3752 77.2603 72.5276 77.9555C76.9997 79.4035 107.458 85.1713 113.855 85.6169Z" fill="#C1E1EA"/>
<path d="M44.9502 36.1914C52.7404 38.0222 59.2506 39.5123 63.8033 37.4379C70.2554 34.4984 97.3252 24.7305 101.689 22.642C102.374 22.3145 102.672 21.973 102.721 21.6329C102.367 21.3639 102.026 21.0782 101.699 20.7768C101.074 20.635 100.441 20.5326 99.8034 20.4702C91.7495 19.6963 73.0425 16.8989 65.0554 15.3784C58.7265 14.1737 51.1701 15.7107 45.0048 18.1395C38.1575 20.8362 24.3415 26.6648 17.319 28.7367C15.2106 29.3578 13.5261 30.2265 12.1621 31.2782C12.6463 31.6343 13.2593 31.9393 14.0618 32.106C17.9417 32.9041 37.1595 34.3576 44.9502 36.1914Z" fill="#D2ECF3"/>
<path opacity="0.5" d="M67.3057 77.137C66.0713 77.2368 64.8633 77.5484 63.7346 78.058L63.9498 79.5557C66.037 93.8782 68.6305 105.674 68.7289 107.637C68.7968 108.987 68.1592 110.255 67.0624 111.227C69.5992 111.142 72.0799 110.717 74.3926 109.952C72.8428 108.998 71.7672 107.262 71.2934 105.442C70.7893 103.486 69.6701 91.5436 67.3057 77.137Z" fill="#CFE1EA"/>
<path d="M68.729 107.637C68.6305 105.674 66.0345 93.8817 63.9498 79.5556L63.7346 78.0579C62.3801 78.6328 60.931 79.4182 59.0421 80.3312C51.9203 83.7759 34.1575 91.8795 23.0975 95.6844C20.9779 96.4129 19.7835 97.4567 19.3221 98.56C21.3259 100.566 23.8626 101.956 26.6319 102.565C33.3297 104.104 48.3472 106.925 58.0589 110.021C61.0009 110.959 64.0644 111.323 67.0619 111.224C68.1622 110.254 68.7969 108.987 68.729 107.637ZM111.471 92.8257C115.398 91.1843 117.254 89.1644 117.976 86.7843C116.627 86.1438 115.189 85.7097 113.855 85.6168C107.458 85.1712 76.9967 79.4039 72.5215 77.9564C70.3691 77.2612 68.7503 77.0387 67.3058 77.1369C69.6706 91.5466 70.7893 103.486 71.2965 105.441C71.7707 107.265 72.8458 108.998 74.3956 109.952C75.8598 109.479 77.2731 108.861 78.6145 108.107C84.3705 104.807 102.288 96.6574 111.471 92.8257Z" fill="#9BC2D4"/>
<path d="M31.8054 70.1312C21.5193 82.0558 20.2699 102.124 19.2506 93.2877C18.4097 85.9923 14.7075 64.5293 13.3432 55.5731C12.1912 48.0156 12.4107 41.3249 23.1728 44.4248C31.4272 46.8012 46.0055 47.4261 53.3266 50.8676C58.0567 53.0923 46.0944 53.5655 31.8054 70.1312Z" fill="#C1E1EA"/>
<path d="M98.7878 49.5747C107.672 53.7568 112.255 64.8259 111.181 59.3838C110.294 54.8912 108.861 44.405 107.972 38.8286C107.219 34.1224 107.187 30.0241 100.854 32.9668C95.4089 35.4942 85.7179 37.961 82.0236 41.3954C79.6365 43.6132 86.7929 43.9308 98.7878 49.5747Z" fill="#D2ECF3"/>
</g>
<defs>
<clipPath id="clip0_529_359">
<rect width="110.482" height="110.482" fill="white" transform="translate(0 17.0439) rotate(-8.87444)"/>
</clipPath>
</defs>
</svg>
