<svg width="108" height="115" viewBox="0 0 108 115" fill="none" xmlns="http://www.w3.org/2000/svg">
<path d="M58.275 79.5C22.65 79.5 22.65 34.5 58.275 34.5V79.5Z" fill="#9E7658"/>
<path d="M58.275 79.5C68.3404 79.5 76.5 69.4264 76.5 57C76.5 44.5736 68.3404 34.5 58.275 34.5C48.2096 34.5 40.05 44.5736 40.05 57C40.05 69.4264 48.2096 79.5 58.275 79.5Z" fill="#89664C"/>
<path d="M58.275 78.225C67.7605 78.225 75.45 68.7223 75.45 57C75.45 45.2778 67.7605 35.775 58.275 35.775C48.7895 35.775 41.1 45.2778 41.1 57C41.1 68.7223 48.7895 78.225 58.275 78.225Z" fill="#B2D921"/>
<path d="M58.275 75.525C66.5593 75.525 73.275 67.2311 73.275 57C73.275 46.7689 66.5593 38.475 58.275 38.475C49.9908 38.475 43.275 46.7689 43.275 57C43.275 67.2311 49.9908 75.525 58.275 75.525Z" fill="#C7E755"/>
<path d="M70.05 60.975C69.825 62.025 65.4 60.975 65.025 61.875C64.575 62.85 67.5 66.975 66.9 67.725C66.3 68.475 62.925 64.875 62.175 65.4C61.425 65.925 62.25 71.325 61.425 71.625C60.6 71.925 59.175 66.675 58.275 66.675C57.45 66.675 55.95 71.85 55.125 71.55C54.225 71.25 55.125 65.85 54.375 65.325C53.625 64.8 50.25 68.4 49.65 67.65C49.05 66.9 51.975 62.775 51.525 61.8C51.075 60.9 46.725 61.875 46.5 60.9C46.275 59.85 50.475 58.125 50.475 57C50.475 55.95 46.275 54.15 46.5 53.1C46.725 52.05 51.15 53.1 51.525 52.2C51.975 51.225 49.05 47.1 49.65 46.35C50.25 45.6 53.625 49.2 54.375 48.675C55.125 48.15 54.3 42.75 55.125 42.45C55.95 42.15 57.375 47.4 58.275 47.4C59.1 47.4 60.6 42.225 61.425 42.45C62.325 42.75 61.425 48.15 62.175 48.675C62.925 49.2 66.3 45.6 66.9 46.35C67.5 47.1 64.575 51.225 65.025 52.2C65.475 53.1 69.825 52.125 70.05 53.1C70.275 54.15 66.075 55.875 66.075 57C66.075 58.125 70.275 59.925 70.05 60.975Z" fill="#B2D921"/>
<path d="M68.25 57L62.175 58.275L66.9 63.15L61.125 60.525L63.225 67.65L59.325 61.875L58.275 69.3L57.15 61.875L53.25 67.65L55.35 60.525L49.575 63.15L54.3 58.275L48.225 57L54.3 55.725L49.575 50.85L55.35 53.475L53.25 46.35L57.15 52.125L58.275 44.7L59.325 52.125L63.225 46.35L61.125 53.475L66.9 50.85L62.175 55.725L68.25 57Z" fill="#ECFFAD"/>
<path d="M56.175 46.05L55.875 47.85L56.85 49.275L57.15 47.475L56.175 46.05ZM54.3 43.5L53.925 45.3L54.9 46.725L55.275 44.925L54.3 43.5ZM61.05 45.675L59.775 46.65L59.625 48.525L60.9 47.475L61.05 45.675ZM60.3 67.95L60.675 66.15L59.625 64.725L59.325 66.525L60.3 67.95ZM62.25 70.5L62.55 68.7L61.575 67.275L61.2 69.075L62.25 70.5ZM55.425 68.325L56.7 67.35L56.85 65.475L55.575 66.525L55.425 68.325ZM67.125 54.45L65.7 54.075L64.5 55.275L66 55.65L67.125 54.45ZM69.225 52.125L67.725 51.675L66.6 52.875L68.025 53.325L69.225 52.125ZM67.425 60.45L66.675 58.875L65.175 58.725L65.925 60.3L67.425 60.45ZM49.35 59.55L50.85 59.925L51.975 58.725L50.475 58.35L49.35 59.55ZM47.325 61.875L48.75 62.325L49.875 61.125L48.45 60.675L47.325 61.875ZM49.05 53.55L49.8 55.125L51.3 55.275L50.55 53.7L49.05 53.55ZM65.4 49.95L63.9 50.4L63.3 52.05L64.725 51.675L65.4 49.95ZM66.375 46.725L64.95 47.175L64.35 48.9L65.775 48.45L66.375 46.725ZM50.1 67.275L51.525 66.825L52.2 65.1L50.7 65.55L50.1 67.275ZM52.5 48.225L52.875 50.025L54.225 50.775L53.925 48.975L52.5 48.225ZM49.95 46.95L50.25 48.75L51.675 49.5L51.3 47.7L49.95 46.95ZM66.525 67.05L66.225 65.25L64.875 64.5L65.175 66.3L66.525 67.05Z" fill="#3E4347"/>
<g opacity="0.8" clip-path="url(#clip0_526_207)">
<path d="M15.1153 33.2303C20.3684 34.6453 29.0806 35.8643 37.2438 37.0438C44.6142 38.1111 50.0682 40.1602 51.1427 47.042C51.6308 50.1679 52.7549 59.6412 54.37 70.8038C55.3695 70.352 56.3191 70.0644 57.3666 70.0032L57.306 69.6316C55.3362 57.6513 53.3632 47.3721 52.8478 44.0543C51.7592 37.0325 56.5203 37.2019 63.4405 33.8806C66.5895 32.368 81.1365 26.323 85.993 24.3788C90.0658 22.7476 88.1125 21.0364 86.5508 19.6934C86.5105 20.004 86.2638 20.3127 85.6933 20.6036C82.0422 22.4619 59.3586 31.0741 53.9594 33.6888C50.152 35.5317 44.6507 34.0986 38.0692 32.3337C31.4881 30.5715 15.2879 29.0202 12.0136 28.2433C11.434 28.1142 10.8845 27.8484 10.4044 27.4651C10.1874 27.6468 9.96491 27.8266 9.76583 28.0226C9.9327 27.988 10.0668 27.9444 10.2447 27.9137C11.4566 27.7018 10.3664 31.9528 15.1153 33.2303Z" fill="#F5F8FA"/>
<path d="M7.2834 44.102C8.6346 51.1511 12.1045 69.0282 12.7624 77.2036C13.1959 82.6045 14.8308 86.4385 17.2087 89.0304C17.5841 88.0248 18.5758 87.0879 20.3549 86.4462C29.6248 83.0963 44.4898 75.8954 50.4475 72.8295C52.0276 72.0169 53.2393 71.3187 54.3729 70.8061C52.7579 59.6435 51.6337 50.1702 51.1457 47.0444C50.0712 40.1625 44.6172 38.1135 37.2468 37.0462C29.0806 35.8642 20.3684 34.6453 15.1153 33.2303C10.3664 31.9527 11.4567 27.7017 10.2443 27.9109C10.0689 27.9411 9.93526 27.9876 9.76541 28.0198C6.08249 31.6633 6.0294 37.5752 7.2834 44.102Z" fill="#ADD3E0"/>
<path d="M96.6624 78.2853C97.7873 78.3855 99.0029 78.7986 100.146 79.3993C100.869 76.7072 100.112 73.4839 99.3594 69.7652C98.0003 63.0501 95.1323 41.7063 94.0692 31.905C93.1853 23.7705 90.1252 20.3865 86.4208 19.1449C86.4762 19.2224 86.5168 19.3109 86.54 19.4051C86.5633 19.4993 86.5686 19.5971 86.5559 19.6926C88.1151 21.0359 90.0683 22.7472 85.9981 24.378C81.139 26.3225 66.5951 32.3699 63.4455 33.8797C56.5254 37.2011 51.7643 37.0317 52.8529 44.0535C53.3683 47.3713 55.3417 57.6533 57.3111 69.6308L57.3717 70.0024C58.5874 69.932 59.9528 70.151 61.7732 70.8109C65.5558 72.1853 91.2707 77.8049 96.6624 78.2853Z" fill="#C1E1EA"/>
<path d="M38.0717 32.3332C44.6527 34.0954 50.152 35.5316 53.962 33.6884C59.3615 31.0765 82.0447 22.4615 85.6958 20.6032C86.2689 20.3118 86.5156 20.0031 86.5533 19.693C86.2521 19.4431 85.9616 19.1782 85.6829 18.899C85.155 18.7622 84.6205 18.6614 84.0827 18.5971C77.2918 17.7977 61.5067 15.027 54.7634 13.5461C49.4201 12.3727 43.0746 13.6905 37.9106 15.8391C32.1755 18.2247 20.608 23.3921 14.7182 25.2047C12.9499 25.7481 11.5413 26.5225 10.4048 27.4678C10.8166 27.7988 11.3363 28.0845 12.014 28.246C15.2904 29.0198 31.4902 30.5683 38.0717 32.3332Z" fill="#D2ECF3"/>
<path opacity="0.5" d="M57.3666 70.0031C56.3282 70.0802 55.3146 70.351 54.3699 70.8037L54.5683 72.1747C56.4902 85.2858 58.8094 96.0939 58.9148 97.8889C58.9874 99.1231 58.465 100.274 57.5526 101.15C59.6878 101.101 61.7719 100.742 63.7106 100.069C62.3946 99.1798 61.469 97.5811 61.0491 95.9119C60.6022 94.1191 59.5228 83.1942 57.3666 70.0031Z" fill="#CFE1EA"/>
<path d="M58.9148 97.8889C58.8094 96.0939 56.4881 85.289 54.5683 72.1748L54.3699 70.8038C53.2359 71.3136 52.0246 72.0146 50.4445 72.8272C44.4868 75.8931 29.6218 83.0939 20.3519 86.4438C18.5754 87.0852 17.5816 88.0252 17.2057 89.028C18.916 90.8843 21.0681 92.1835 23.4071 92.7718C29.0649 94.2544 41.7433 97.004 49.957 99.9445C52.4452 100.836 55.0291 101.203 57.5522 101.147C58.4676 100.274 58.9875 99.1231 58.9148 97.8889ZM94.7372 84.845C98.0258 83.3903 99.5654 81.5659 100.146 79.3993C99.0029 78.7986 97.7873 78.3856 96.6624 78.2854C91.2707 77.8049 65.5532 72.1858 61.7681 70.8117C59.9477 70.1519 58.5819 69.93 57.3666 70.0032C59.5232 83.197 60.6022 94.1191 61.0517 95.9116C61.472 97.5835 62.3972 99.1794 63.7132 100.069C64.9407 99.6533 66.1238 99.1047 67.2447 98.431C72.0539 95.4819 87.0483 88.2409 94.7372 84.845Z" fill="#9BC2D4"/>
<path d="M27.3917 63.1947C18.8666 73.9727 18.0447 92.2953 17.085 84.2097C16.2932 77.5339 12.9295 57.8799 11.678 49.6806C10.6212 42.7619 10.7293 36.6508 19.8276 39.6068C26.8058 41.8728 39.0892 42.611 45.2937 45.8396C49.3023 47.9266 39.2344 48.2217 27.3917 63.1947Z" fill="#C1E1EA"/>
<path d="M83.5613 45.1795C91.0905 49.1027 95.0766 59.2695 94.1103 54.2845C93.3112 50.1693 91.9848 40.5712 91.172 35.4656C90.4835 31.1567 90.4103 27.4116 85.1106 30.0278C80.5545 32.2748 72.422 34.4176 69.3505 37.5135C67.3658 39.5125 73.3957 39.8848 83.5613 45.1795Z" fill="#D2ECF3"/>
</g>
<defs>
<clipPath id="clip0_526_207">
<rect width="92.8377" height="101.149" fill="white" transform="translate(0 14.322) rotate(-8.87444)"/>
</clipPath>
</defs>
</svg>
