<svg width="127" height="127" viewBox="0 0 127 127" fill="none" xmlns="http://www.w3.org/2000/svg">
<rect x="24" y="59.1025" width="50.1502" height="62.9112" rx="8" transform="rotate(-46.0454 24 59.1025)" fill="#300909"/>
<rect x="38" y="59.5996" width="5" height="5" rx="1" transform="rotate(-46.0454 38 59.5996)" fill="#773333"/>
<rect x="50" y="70.5996" width="5" height="5" rx="1" transform="rotate(-46.0454 50 70.5996)" fill="#773333"/>
<rect x="62" y="82.5996" width="5" height="5" rx="1" transform="rotate(-46.0454 62 82.5996)" fill="#773333"/>
<rect x="68" y="88.5996" width="5" height="5" rx="1" transform="rotate(-46.0454 68 88.5996)" fill="#773333"/>
<rect x="56" y="75.5996" width="5" height="5" rx="1" transform="rotate(-46.0454 56 75.5996)" fill="#773333"/>
<rect x="44" y="64.5996" width="5" height="5" rx="1" transform="rotate(-46.0454 44 64.5996)" fill="#773333"/>
<rect x="45" y="52.5996" width="5" height="5" rx="1" transform="rotate(-46.0454 45 52.5996)" fill="#773333"/>
<rect x="57" y="63.5996" width="5" height="5" rx="1" transform="rotate(-46.0454 57 63.5996)" fill="#773333"/>
<rect x="69" y="76.5996" width="5" height="5" rx="1" transform="rotate(-46.0454 69 76.5996)" fill="#773333"/>
<path d="M75.1141 82.9226C74.7165 82.5392 74.7049 81.9062 75.0883 81.5086L77.1705 79.3489C77.5539 78.9513 78.1869 78.9398 78.5845 79.3231L80.7442 81.4054C81.1418 81.7887 81.1533 82.4218 80.77 82.8194L78.6877 84.979C78.3044 85.3766 77.6713 85.3882 77.2737 85.0048L75.1141 82.9226Z" fill="#773333"/>
<rect x="63" y="69.5996" width="5" height="5" rx="1" transform="rotate(-46.0454 63 69.5996)" fill="#773333"/>
<rect x="51" y="58.5996" width="5" height="5" rx="1" transform="rotate(-46.0454 51 58.5996)" fill="#773333"/>
<rect x="51" y="45.5996" width="5" height="5" rx="1" transform="rotate(-46.0454 51 45.5996)" fill="#773333"/>
<rect x="64" y="57.5996" width="5" height="5" rx="1" transform="rotate(-46.0454 64 57.5996)" fill="#773333"/>
<rect x="76" y="69.5996" width="5" height="5" rx="1" transform="rotate(-46.0454 76 69.5996)" fill="#773333"/>
<rect x="81" y="75.5996" width="5" height="5" rx="1" transform="rotate(-46.0454 81 75.5996)" fill="#773333"/>
<rect x="70" y="63.5996" width="5" height="5" rx="1" transform="rotate(-46.0454 70 63.5996)" fill="#773333"/>
<rect x="57" y="51.5996" width="5" height="5" rx="1" transform="rotate(-46.0454 57 51.5996)" fill="#773333"/>
<rect x="57" y="38.5996" width="5" height="5" rx="1" transform="rotate(-46.0454 57 38.5996)" fill="#773333"/>
<rect x="70" y="50.5996" width="5" height="5" rx="1" transform="rotate(-46.0454 70 50.5996)" fill="#773333"/>
<rect x="88" y="68.5996" width="5" height="5" rx="1" transform="rotate(-46.0454 88 68.5996)" fill="#773333"/>
<rect x="82" y="63.5996" width="5" height="5" rx="1" transform="rotate(-46.0454 82 63.5996)" fill="#773333"/>
<rect x="76" y="56.5996" width="5" height="5" rx="1" transform="rotate(-46.0454 76 56.5996)" fill="#773333"/>
<rect x="64" y="44.5996" width="5" height="5" rx="1" transform="rotate(-46.0454 64 44.5996)" fill="#773333"/>
<g opacity="0.8" clip-path="url(#clip0_529_337)">
<path d="M17.6709 37.5155C23.8891 38.986 34.2186 40.1904 43.8966 41.3599C52.6348 42.4183 59.082 44.5799 60.2557 52.0967C60.7888 55.5109 61.9828 65.8635 63.7346 78.058C64.9286 77.5485 66.0607 77.2196 67.3057 77.137L67.2393 76.7311C65.0783 63.647 62.8881 52.4249 62.3254 48.801C61.1372 41.1311 66.7895 41.2456 75.0582 37.5069C78.821 35.8043 96.1888 28.9707 101.986 26.7703C106.848 24.9241 104.553 23.0801 102.718 21.6333C102.666 21.9739 102.368 22.3154 101.686 22.6425C97.3222 24.731 70.2519 34.4959 63.8002 37.4383C59.2506 39.5123 52.7379 38.0257 44.9472 36.1919C37.1569 34.3611 17.9387 32.9046 14.0614 32.1029C13.3749 31.9702 12.7262 31.6876 12.1616 31.2751C11.9012 31.4773 11.6343 31.6774 11.3949 31.8949C11.5936 31.8546 11.7535 31.8048 11.9653 31.7686C13.4079 31.5185 12.0497 36.1878 17.6709 37.5155Z" fill="#F5F8FA"/>
<path d="M8.20679 49.5323C9.70658 57.2281 13.5614 76.7445 14.221 85.6834C14.6554 91.5887 16.54 95.761 19.3256 98.5626C19.7866 97.4563 20.9784 96.4161 23.101 95.6871C34.161 91.8822 51.9238 83.7786 59.0457 80.3339C60.9345 79.4209 62.3841 78.6386 63.7382 78.0606C61.9863 65.8662 60.7923 55.5135 60.2592 52.0993C59.0856 44.5825 52.6383 42.4209 43.9002 41.3625C34.2187 40.1905 23.8891 38.9861 17.6709 37.5156C12.0497 36.1879 13.4079 31.5186 11.9649 31.7656C11.7561 31.8013 11.5967 31.8542 11.3944 31.892C6.96584 35.9349 6.81467 42.4068 8.20679 49.5323Z" fill="#ADD3E0"/>
<path d="M113.855 85.6169C115.189 85.7098 116.627 86.1438 117.976 86.7843C118.874 83.8267 118.024 80.3098 117.185 76.2506C115.671 68.9206 112.583 45.6006 111.466 34.888C110.538 25.9973 106.953 22.3388 102.572 21.035C102.637 21.119 102.684 21.2153 102.71 21.318C102.736 21.4207 102.741 21.5277 102.724 21.6324C104.556 23.0796 106.851 24.9236 101.992 26.7693C96.1918 28.9702 78.8275 35.8064 75.0643 37.506C66.7956 41.2447 61.1432 41.1302 62.3314 48.8C62.8942 52.424 65.0848 63.6491 67.2453 76.7302L67.3118 77.136C68.7568 77.0409 70.3752 77.2603 72.5276 77.9555C76.9997 79.4035 107.458 85.1713 113.855 85.6169Z" fill="#C1E1EA"/>
<path d="M44.9502 36.1914C52.7405 38.0222 59.2506 39.5123 63.8033 37.4379C70.2555 34.4984 97.3252 24.7305 101.689 22.642C102.374 22.3145 102.672 21.973 102.721 21.6329C102.367 21.3639 102.026 21.0782 101.699 20.7768C101.074 20.635 100.441 20.5326 99.8034 20.4702C91.7496 19.6963 73.0426 16.8989 65.0554 15.3784C58.7265 14.1737 51.1702 15.7107 45.0048 18.1395C38.1575 20.8362 24.3415 26.6648 17.319 28.7367C15.2107 29.3578 13.5261 30.2265 12.1621 31.2782C12.6464 31.6343 13.2593 31.9393 14.0619 32.106C17.9418 32.9041 37.1595 34.3576 44.9502 36.1914Z" fill="#D2ECF3"/>
<path opacity="0.5" d="M67.3057 77.137C66.0713 77.2368 64.8633 77.5484 63.7346 78.058L63.9498 79.5557C66.037 93.8782 68.6305 105.674 68.7289 107.637C68.7968 108.987 68.1592 110.255 67.0624 111.227C69.5992 111.142 72.0799 110.717 74.3926 109.952C72.8428 108.998 71.7672 107.262 71.2934 105.442C70.7893 103.486 69.6701 91.5436 67.3057 77.137Z" fill="#CFE1EA"/>
<path d="M68.729 107.637C68.6305 105.674 66.0345 93.8818 63.9498 79.5558L63.7346 78.058C62.3801 78.633 60.931 79.4183 59.0421 80.3314C51.9203 83.7761 34.1575 91.8796 23.0975 95.6845C20.9779 96.413 19.7835 97.4568 19.3221 98.5601C21.3259 100.566 23.8626 101.956 26.6319 102.566C33.3297 104.104 48.3472 106.925 58.0589 110.021C61.0009 110.959 64.0644 111.323 67.0619 111.224C68.1622 110.254 68.7969 108.987 68.729 107.637ZM111.471 92.8258C115.398 91.1844 117.254 89.1645 117.976 86.7844C116.627 86.1439 115.189 85.7098 113.855 85.6169C107.458 85.1714 76.9967 79.4041 72.5215 77.9565C70.3691 77.2613 68.7503 77.0388 67.3058 77.137C69.6706 91.5467 70.7893 103.486 71.2965 105.441C71.7707 107.265 72.8458 108.998 74.3956 109.952C75.8598 109.479 77.2731 108.861 78.6145 108.107C84.3705 104.807 102.288 96.6575 111.471 92.8258Z" fill="#9BC2D4"/>
<path d="M31.8054 70.1311C21.5193 82.0557 20.27 102.124 19.2506 93.2876C18.4097 85.9921 14.7075 64.5292 13.3432 55.5729C12.1912 48.0155 12.4107 41.3248 23.1729 44.4247C31.4272 46.8011 46.0055 47.426 53.3266 50.8675C58.0567 53.0922 46.0944 53.5653 31.8054 70.1311Z" fill="#C1E1EA"/>
<path d="M98.7878 49.5747C107.672 53.7568 112.255 64.8259 111.181 59.3838C110.294 54.8912 108.861 44.405 107.972 38.8286C107.219 34.1224 107.187 30.0241 100.854 32.9668C95.409 35.4942 85.7179 37.961 82.0236 41.3954C79.6365 43.6132 86.7929 43.9308 98.7878 49.5747Z" fill="#D2ECF3"/>
</g>
<defs>
<clipPath id="clip0_529_337">
<rect width="110.482" height="110.482" fill="white" transform="translate(0 17.0439) rotate(-8.87444)"/>
</clipPath>
</defs>
</svg>
