<svg width="108" height="115" viewBox="0 0 108 115" fill="none" xmlns="http://www.w3.org/2000/svg">
<g clip-path="url(#clip0_529_293)">
<path d="M71.2307 87.6481C19.1942 105.216 -2.99625 39.4852 49.0403 21.9178L71.2307 87.6481Z" fill="#563626"/>
<path d="M71.2306 87.6481C85.9329 82.6847 92.8839 63.9468 86.7562 45.7958C80.6285 27.6449 63.7425 16.9543 49.0402 21.9178C34.338 26.8812 27.3869 45.6191 33.5146 63.7701C39.6424 81.921 56.5284 92.6116 71.2306 87.6481Z" fill="#89664C"/>
<path d="M70.3226 85.8801C84.0235 81.2547 90.4443 63.6246 84.6638 46.5023C78.8833 29.3799 63.0905 19.2491 49.3896 23.8745C35.6887 28.4999 29.2679 46.1299 35.0484 63.2523C40.8289 80.3747 56.6217 90.5055 70.3226 85.8801Z" fill="#FFE9AD"/>
<path d="M79.8864 53.4311L79.8864 65.83L71.3815 63.3059L80.9472 66.1448L71.3815 76.3163L61.5089 71.4653L63.228 76.3841L60.869 69.6343L53.7281 76.3163L54.7304 70.49L45.228 71.6233L45.2281 63.3059L44.2281 53.4311L42.7281 43.7926L47.9901 35.9001L58.8812 29.9649L64.4459 33.4648L69.641 43.7925L67.2948 40.3529L74.8818 40.3529L74.8818 45.1137L75.7281 48.3841L79.8864 53.4311Z" fill="#FFF0A5"/>
</g>
<g opacity="0.8" clip-path="url(#clip1_529_293)">
<path d="M15.1153 33.2303C20.3684 34.6453 29.0806 35.8643 37.2438 37.0438C44.6142 38.1111 50.0682 40.1602 51.1427 47.042C51.6308 50.1679 52.7549 59.6412 54.37 70.8038C55.3695 70.352 56.3191 70.0644 57.3666 70.0032L57.306 69.6316C55.3362 57.6513 53.3632 47.3721 52.8478 44.0543C51.7592 37.0325 56.5203 37.2019 63.4405 33.8806C66.5895 32.368 81.1365 26.323 85.993 24.3788C90.0658 22.7476 88.1125 21.0364 86.5508 19.6934C86.5105 20.004 86.2638 20.3127 85.6933 20.6036C82.0422 22.4619 59.3586 31.0741 53.9594 33.6888C50.152 35.5317 44.6507 34.0986 38.0692 32.3337C31.4881 30.5715 15.2879 29.0202 12.0136 28.2433C11.434 28.1142 10.8845 27.8484 10.4044 27.4651C10.1874 27.6468 9.96491 27.8266 9.76583 28.0226C9.9327 27.988 10.0668 27.9444 10.2447 27.9137C11.4566 27.7018 10.3664 31.9528 15.1153 33.2303Z" fill="#F5F8FA"/>
<path d="M7.2834 44.102C8.6346 51.1511 12.1045 69.0282 12.7624 77.2036C13.1959 82.6045 14.8308 86.4385 17.2087 89.0304C17.5841 88.0248 18.5758 87.0879 20.3549 86.4462C29.6248 83.0963 44.4898 75.8954 50.4475 72.8295C52.0276 72.0169 53.2393 71.3187 54.3729 70.8061C52.7579 59.6435 51.6337 50.1702 51.1457 47.0444C50.0712 40.1625 44.6172 38.1135 37.2468 37.0462C29.0806 35.8642 20.3684 34.6453 15.1153 33.2303C10.3664 31.9527 11.4567 27.7017 10.2443 27.9109C10.0689 27.9411 9.93526 27.9876 9.76541 28.0198C6.08249 31.6633 6.0294 37.5752 7.2834 44.102Z" fill="#ADD3E0"/>
<path d="M96.6624 78.2853C97.7873 78.3855 99.0028 78.7986 100.146 79.3993C100.869 76.7072 100.112 73.4839 99.3594 69.7652C98.0003 63.0501 95.1323 41.7063 94.0691 31.905C93.1853 23.7705 90.1252 20.3865 86.4208 19.1449C86.4762 19.2224 86.5168 19.3109 86.54 19.4051C86.5632 19.4993 86.5686 19.5971 86.5559 19.6926C88.115 21.0359 90.0683 22.7472 85.9981 24.378C81.139 26.3225 66.595 32.3699 63.4455 33.8797C56.5254 37.2011 51.7643 37.0317 52.8528 44.0535C53.3683 47.3713 55.3417 57.6533 57.311 69.6308L57.3717 70.0024C58.5874 69.932 59.9527 70.151 61.7732 70.8109C65.5558 72.1853 91.2706 77.8049 96.6624 78.2853Z" fill="#C1E1EA"/>
<path d="M38.0717 32.3332C44.6527 34.0954 50.152 35.5316 53.962 33.6884C59.3615 31.0765 82.0447 22.4615 85.6958 20.6032C86.2689 20.3118 86.5156 20.0031 86.5533 19.693C86.2521 19.4431 85.9616 19.1782 85.6829 18.899C85.155 18.7622 84.6205 18.6614 84.0827 18.5971C77.2918 17.7977 61.5067 15.027 54.7634 13.5461C49.4201 12.3727 43.0746 13.6905 37.9106 15.8391C32.1755 18.2247 20.608 23.3921 14.7182 25.2047C12.9499 25.7481 11.5413 26.5225 10.4048 27.4678C10.8166 27.7988 11.3363 28.0845 12.014 28.246C15.2904 29.0198 31.4902 30.5683 38.0717 32.3332Z" fill="#D2ECF3"/>
<path opacity="0.5" d="M57.3666 70.0031C56.3282 70.0802 55.3146 70.351 54.3699 70.8037L54.5683 72.1747C56.4902 85.2858 58.8094 96.0939 58.9148 97.8889C58.9874 99.1231 58.465 100.274 57.5526 101.15C59.6878 101.101 61.7719 100.742 63.7106 100.069C62.3946 99.1798 61.469 97.5811 61.0491 95.9119C60.6022 94.1191 59.5228 83.1942 57.3666 70.0031Z" fill="#CFE1EA"/>
<path d="M58.9148 97.8889C58.8094 96.0939 56.4881 85.289 54.5683 72.1748L54.3699 70.8038C53.2359 71.3136 52.0246 72.0146 50.4445 72.8272C44.4868 75.8931 29.6218 83.0939 20.3519 86.4438C18.5754 87.0852 17.5816 88.0252 17.2057 89.028C18.916 90.8843 21.0681 92.1835 23.4071 92.7718C29.0649 94.2544 41.7433 97.004 49.957 99.9445C52.4452 100.836 55.0291 101.203 57.5522 101.147C58.4676 100.274 58.9875 99.1231 58.9148 97.8889ZM94.7372 84.845C98.0258 83.3903 99.5654 81.5659 100.146 79.3993C99.0029 78.7986 97.7873 78.3856 96.6624 78.2854C91.2707 77.8049 65.5532 72.1858 61.7681 70.8117C59.9477 70.1519 58.5819 69.93 57.3666 70.0032C59.5232 83.197 60.6022 94.1191 61.0517 95.9116C61.472 97.5835 62.3972 99.1794 63.7132 100.069C64.9407 99.6533 66.1238 99.1047 67.2447 98.431C72.0539 95.4819 87.0483 88.2409 94.7372 84.845Z" fill="#9BC2D4"/>
<path d="M27.3917 63.1947C18.8666 73.9727 18.0447 92.2953 17.085 84.2097C16.2932 77.5339 12.9295 57.8799 11.678 49.6806C10.6212 42.7619 10.7293 36.6508 19.8276 39.6068C26.8058 41.8728 39.0892 42.611 45.2937 45.8396C49.3023 47.9266 39.2344 48.2217 27.3917 63.1947Z" fill="#C1E1EA"/>
<path d="M83.5612 45.1795C91.0905 49.1027 95.0766 59.2695 94.1103 54.2845C93.3112 50.1693 91.9848 40.5712 91.1719 35.4656C90.4835 31.1567 90.4103 27.4116 85.1106 30.0278C80.5545 32.2748 72.422 34.4176 69.3505 37.5135C67.3657 39.5125 73.3957 39.8848 83.5612 45.1795Z" fill="#D2ECF3"/>
</g>
<defs>
<clipPath id="clip0_529_293">
<rect width="74" height="74" fill="white" transform="translate(7 33.6698) rotate(-18.6546)"/>
</clipPath>
<clipPath id="clip1_529_293">
<rect width="92.8377" height="101.149" fill="white" transform="translate(0 14.322) rotate(-8.87444)"/>
</clipPath>
</defs>
</svg>
